<svg version="1.2" xmlns="http://www.w3.org/2000/svg" viewBox="0 0 17 22" width="100" height="129">
	<title>1-svg</title>
	<style>
		.s0 { fill: #ffffff } 
	</style>
	<g id="Layer 1">
		<g id="Layer">
			<path id="Layer" class="s0" d="m3.7 2.3c-0.7 0-1.4 0.4-1.8 1l-1.5 2.4h0.6 5.6l0.3-2.9v-0.5zm6.3 0l0.1 0.5 0.2 2.9h5.6 0.6l-1.4-2.4c-0.4-0.6-1.1-1-1.9-1zm-9.7 3.9v5.1 6c0 0.8 0.5 1.4 1.3 1.4h13.7c0.8 0 1.4-0.6 1.4-1.4v-11.1h-6.4v3.7q0 0.1 0 0.2-0.1 0-0.1 0.1-0.1 0-0.1 0-0.1 0-0.2 0 0 0 0 0 0 0 0 0 0 0 0 0 0 0 0 0 0 0 0 0 0 0 0 0 0 0 0 0 0 0 0 0l-1.4-0.8-1.5 0.8q0 0 0 0 0 0 0 0 0 0 0 0 0 0 0 0 0 0 0 0 0 0 0 0 0 0 0 0 0 0 0 0-0.1 0-0.1 0-0.1 0-0.2 0 0-0.1-0.1-0.1 0-0.1 0-0.2v-3.7zm1.6 9h1.3 0.3 0.2 2.7q0 0 0.1 0.1 0 0 0.1 0 0 0 0 0.1 0 0 0 0.1v1.6q0 0 0 0.1 0 0 0 0.1-0.1 0-0.1 0-0.1 0-0.1 0h-4.5q-0.1 0-0.1 0-0.1 0-0.1 0 0-0.1-0.1-0.1 0-0.1 0-0.1v-1.6q0-0.1 0-0.1 0.1-0.1 0.1-0.1 0 0 0.1-0.1 0 0 0.1 0z"/>
		</g>
	</g>
</svg>