<svg version="1.2" xmlns="http://www.w3.org/2000/svg" viewBox="0 0 100 125" width="100" height="125">
	<title>2-svg</title>
	<style>
		.s0 { fill: #ffffff } 
	</style>
	<g id="Layer 1">
		<g id="Layer">
			<g id="Layer">
				<path id="Layer" class="s0" d="m13 89c-1.1 0-2-0.9-2-2 0-1.1 0.9-2 2-2 1.1 0 2 0.9 2 2 0 1.1-0.9 2-2 2z"/>
				<path id="Layer" class="s0" d="m50 65h11c0.6 0 1 0.4 1 1v5c0 0.6-0.4 1-1 1h-5.1c0.1 0.4 0.1 0.7 0.1 1.1 0 0.7-0.1 1.4-0.4 2.1l34.7-2.5q0.3 0 0.6 0v-41.7c0-0.6-0.4-1-1-1h-12.9v14c0 0.4-0.2 0.7-0.5 0.9-0.2 0.1-0.3 0.1-0.5 0.1-0.2 0-0.4-0.1-0.5-0.2l-7.5-4.6-7.5 4.7c-0.3 0.2-0.7 0.2-1 0-0.3-0.2-0.5-0.5-0.5-0.9v-14h-13c-0.6 0-1 0.4-1 1v29.7l5 4.3z"/>
				<path id="Layer" class="s0" d="m68 38c0.2 0 0.4 0.1 0.5 0.2l6.5 4v-12.2h-14v12.2l6.5-4c0.1-0.1 0.3-0.2 0.5-0.2z"/>
				<path id="Layer" class="s0" d="m60 67h-7.7l1.6 1.4c0.5 0.5 1 1 1.3 1.6h4.8z"/>
				<path id="Layer" class="s0" d="m93 75.5c-0.7-0.6-1.6-0.9-2.5-0.9l-36.2 2.6c-0.2 0.2-0.3 0.3-0.5 0.5-1.2 1-2.7 1.5-4.1 1.5-1.4 0-2.9-0.5-4-1.4l-8.4-6.9c-0.4-0.3-0.5-1-0.1-1.4 0.3-0.4 1-0.5 1.4-0.1l8.4 6.9c1.6 1.3 4 1.3 5.6-0.1 0.9-0.8 1.5-1.9 1.5-3.2 0-1.3-0.5-2.4-1.4-3.2l-11.7-10c-0.8-0.7-2-1-3.1-0.6l-15.9 4.9v25.3l14.3 3.5q0.7 0.1 1.5 0l53.7-11.9c1.5-0.3 2.5-1.6 2.5-3.1 0-0.9-0.4-1.8-1-2.4z"/>
				<path id="Layer" class="s0" d="m19 60h-12c-0.6 0-1 0.4-1 1v32c0 0.6 0.4 1 1 1h12c0.6 0 1-0.4 1-1v-32c0-0.6-0.4-1-1-1zm-6 31c-2.2 0-4-1.8-4-4 0-2.2 1.8-4 4-4 2.2 0 4 1.8 4 4 0 2.2-1.8 4-4 4z"/>
			</g>
		</g>
	</g>
</svg>