<svg version="1.2" xmlns="http://www.w3.org/2000/svg" viewBox="0 0 110 135" width="100" height="123">
	<title>3-svg</title>
	<style>
		.s0 { fill: #ffffff } 
	</style>
	<g id="Layer 1">
		<path id="Layer" fill-rule="evenodd" class="s0" d="m106 59.2l-7.5-15c-1.5-3-4.5-4.8-8.1-4.8h-11l0.6-5.1c0.7-5.7-3.3-10.3-9-10.3h-48.5c-5.7 0-10.8 4.6-11.5 10.3l-0.3 2.5h24c1.4 0 2.6 1.2 2.6 2.6 0 1.4-1.2 2.5-2.6 2.5h-28.1c-1.4 0-2.5 1.2-2.5 2.6 0 1.4 1.1 2.5 2.5 2.5h33.2c1.4 0 2.6 1.2 2.6 2.6 0 1.4-1.2 2.5-2.6 2.5l-33.2 0.1c-1.4 0-2.5 1.1-2.5 2.5 0 1.4 1.1 2.6 2.5 2.6h25.6c1.4 0 2.5 1.1 2.5 2.5 0 1.4-1.1 2.6-2.5 2.6h-28.1c-1.5 0-2.6 1.1-2.6 2.5 0 1.4 1.1 2.6 2.6 2.6h2.8l-0.9 7.6c-0.7 5.7 3.3 10.3 8.9 10.3h1.9q0 0 0 0c-0.9 6.7 3.9 12.2 10.6 12.2 6.8 0 12.9-5.5 13.7-12.2h31.7c-0.7 6.4 3.9 11.6 10.3 11.6 6.3 0 12.2-5.3 13-11.7q0-0.1 0-0.1c4.8-0.9 8.9-5.1 9.5-10l1.3-10.6c0.3-1.9 0-3.8-0.9-5.4zm-70 26.2c-0.5 3.9-4 7.1-7.9 7.1-3.9 0-6.7-3.2-6.2-7.1 0.4-3.9 4-7.1 7.9-7.1 3.9 0 6.7 3.2 6.2 7.1zm55-0.1c-0.4 3.6-3.7 6.5-7.3 6.5-3.6 0-6.2-2.9-5.7-6.5 0.4-3.6 3.7-6.5 7.3-6.5 3.6 0 6.2 2.9 5.7 6.5zm4.8-22.9h-12.1c-1.1 0-1.9-1-1.8-2.1l1.1-8.6c0.1-1.2 1.1-2.1 2.3-2.1h6.7c0.7 0 1.3 0.4 1.6 1l4.4 8.6c0.6 1.4-0.6 3.2-2.2 3.2z"/>
	</g>
</svg>