<svg version="1.2" xmlns="http://www.w3.org/2000/svg" viewBox="0 0 512 640" width="100" height="125">
	<title>4-svg</title>
	<style>
		.s0 { fill: #ffffff } 
	</style>
	<g id="Layer 1">
		<g id="Folder 1">
			<path id="Layer" class="s0" d="m258 468.9c0-27.4 8-54.2 23-77.2 15-22.9 36.4-41 61.5-52 25.1-11 52.9-14.4 80-9.9 27 4.6 52.1 16.9 72.3 35.5q1-72.3-1.2-144.6c-0.8-33.1-19.5-66.4-50.8-82.8-16.1-8.5-32.8-16.7-49.7-24.5-66.6 21.6-144.7 50-223.5 85.3-3.7 1.6-7.2 3.8-10.4 6.4-3.2 2.7-6 5.7-8.3 9.1-2.3 3.4-4.1 7.1-5.5 11-1.3 3.9-2 8-2.2 12.1-1.2 38-1.6 77.2-1.1 116 0 1.2-0.3 2.3-0.9 3.2-0.7 1-1.6 1.7-2.7 2-1.1 0.4-2.2 0.4-3.3 0.1-1.1-0.3-2-1-2.7-1.9q-12.5-16-24.4-31.7-0.5-0.6-1.1-1-0.6-0.4-1.4-0.6-0.7-0.1-1.5 0-0.7 0.1-1.3 0.5-9.3 5.6-18.2 10.9c-3.4 2-7.5-0.7-7.5-4.8-0.2-38.6 0.7-77.3 2.8-114.9 0.9-15.8 10.8-30.7 25.5-38 75.5-37.3 156.1-67.7 224.8-90.3-16-6.2-31.9-12-47.4-17.4q-7.8-2.7-15.9-4.1-8.2-1.3-16.4-1.3-8.3 0-16.4 1.3-8.1 1.4-15.9 4.1c-51.8 17.9-108.4 41.2-160 68.5-31.3 16.4-50 49.7-50.8 82.8q-3.1 99.3 0 198.6c0.8 33.1 19.5 66.4 50.8 82.8 51.6 27.3 108.2 50.6 160 68.5q7.8 2.7 15.9 4 8.2 1.4 16.4 1.4 8.3 0 16.4-1.4 8.1-1.3 15.9-4 6.8-2.3 13.7-4.8c-6.1-6.5-11.6-13.5-16.4-21-4.8-7.5-8.9-15.5-12.2-23.7-3.3-8.3-5.8-16.9-7.4-25.6-1.7-8.8-2.5-17.7-2.5-26.6z"/>
			<path id="Layer" class="s0" d="m399.1 361.9c-43.3 0-82.4 26.1-98.9 66.1-16.6 40-7.4 86 23.2 116.7 30.6 30.6 76.7 39.7 116.7 23.2 40-16.6 66.1-55.7 66.1-99-0.1-14-2.8-28-8.2-40.9-5.4-13-13.3-24.8-23.2-34.8-10-9.9-21.8-17.8-34.8-23.2-12.9-5.4-26.9-8.1-40.9-8.1zm61 89.3l-64.3 67.6q-1.3 1.4-2.9 2.5-1.6 1.1-3.3 1.8-1.8 0.8-3.6 1.2-1.9 0.3-3.8 0.4h-0.1q-1.9-0.1-3.7-0.4-1.9-0.4-3.6-1.1-1.8-0.8-3.4-1.9-1.5-1-2.8-2.4l-34.2-35.2c-3.5-3.6-5.4-8.4-5.3-13.4 0.1-5 2.1-9.8 5.7-13.3 3.6-3.4 8.4-5.4 13.4-5.3 5 0.1 9.8 2.1 13.3 5.7l20.5 21.1 50.8-53.3c3.5-3.5 8.2-5.4 13.1-5.4 4.9-0.1 9.6 1.8 13.1 5.2 3.6 3.3 5.7 8 5.9 12.8 0.2 4.9-1.5 9.7-4.7 13.4z"/>
		</g>
	</g>
</svg>