<svg version="1.2" xmlns="http://www.w3.org/2000/svg" viewBox="0 0 1000 1000" width="100" height="100">
	<title>7720440-ai</title>
	<style>
		.s0 { fill: #ffffff } 
		.s1 { fill: #f5f5f5 } 
		.s2 { fill: #263238 } 
		.s3 { fill: #e30613 } 
		.s4 { fill: #ff725e } 
		.s5 { fill: #ffbf9d } 
		.s6 { fill: #ff9a6c } 
		.s7 { fill: #455a64 } 
		.s8 { fill: #000000 } 
	</style>
	<g id="Background Simple">
		<path id="&lt;Path&gt;" class="s0" d="m146.6 198.9l3.5-8.1c29.5-68.1 93.3-115.5 166.6-120.9 9.4-0.7 18.9-0.7 28.3 0 68.1 5.1 132.5 47.1 165.1 107.9 19.2 35.7 29.1 78.5 59.8 104.7 40 34.1 98.9 27.3 150.4 18.5 51.5-8.7 110.5-15.4 150.3 18.9 25 21.5 36.6 55.3 39.4 88.3 7.3 87.3-42.5 173.2-114 222.3-71.5 49.1-161.5 65-247.9 59.6-121.1-7.5-242.1-57.3-323.3-148.8-81.2-91.4-117.1-226.3-78.2-342.4z"/>
		<path id="&lt;Path&gt;" class="s1" d="m247.7 796.6c0 36-29.1 65.2-65.1 65.2-36 0-65.2-29.2-65.2-65.2 0-36 29.2-65.2 65.2-65.2 36 0 65.1 29.2 65.1 65.2z"/>
	</g>
	<g id="Floor">
		<g id="&lt;Group&gt;">
			<path id="&lt;Path&gt;" class="s2" d="m940.8 944.6c0 0.3-197.4 0.5-440.8 0.5-243.5 0-440.8-0.2-440.8-0.5 0-0.3 197.3-0.6 440.8-0.6 243.4 0 440.8 0.3 440.8 0.6z"/>
		</g>
	</g>
	<g id="Speech Bubble 2">
		<g id="&lt;Group&gt;">
			<g id="&lt;Group&gt;">
				<g id="&lt;Group&gt;">
					<path id="&lt;Path&gt;" class="s0" d="m204.3 244.3c0 35.6-28.8 64.4-64.4 64.4-35.6 0-64.4-28.8-64.4-64.4 0-35.6 28.8-64.4 64.4-64.4 35.6 0 64.4 28.8 64.4 64.4z"/>
					<g id="&lt;Group&gt;">
						<path id="&lt;Path&gt;" class="s2" d="m204.3 244.3q0 0-0.1-1.1-0.1-1-0.2-3 0-1-0.1-2.3c-0.1-0.8-0.3-1.7-0.4-2.7q-0.3-1.4-0.5-3.1c-0.2-1.1-0.6-2.3-0.9-3.5-1.1-5-3.4-10.9-7.1-17.1-3.7-6.2-9-12.7-16.3-18.2q-1.4-1-2.8-2c-1-0.7-2-1.3-3-1.9-1-0.6-2-1.3-3.1-1.8q-1.7-0.8-3.4-1.6-0.8-0.4-1.6-0.8-0.9-0.3-1.8-0.6-1.8-0.7-3.6-1.4c-1.3-0.4-2.5-0.6-3.8-1-1.3-0.3-2.6-0.7-3.9-0.8-2.6-0.4-5.3-1-8.1-1-1.4 0-2.8-0.2-4.2-0.1q-2.1 0.1-4.2 0.2c-0.7 0-1.4 0-2.1 0.1l-2.2 0.3c-1.4 0.3-2.9 0.4-4.3 0.7-2.8 0.8-5.7 1.4-8.5 2.5-2.9 1-5.6 2.4-8.4 3.7-1.3 0.7-2.6 1.6-4 2.4-0.6 0.4-1.3 0.8-1.9 1.2l-1.9 1.5c-2.6 1.7-4.9 4-7.3 6.1q-1.6 1.8-3.2 3.6l-0.9 0.9-0.7 1-1.5 2-1.4 1.9-1.3 2.1-1.3 2.1-0.7 1.1-0.5 1.1q-1.1 2.3-2.2 4.5-0.8 2.4-1.7 4.8c-2.1 6.4-3.2 13.2-3.3 20.2 0.1 6.9 1.2 13.8 3.3 20.2q0.9 2.4 1.7 4.7 1.1 2.3 2.2 4.5l0.5 1.2 0.7 1 1.3 2.1 1.3 2.2 1.4 1.9 1.5 2 0.7 1 0.9 0.9q1.6 1.8 3.2 3.5c2.4 2.2 4.7 4.4 7.3 6.2l1.9 1.4c0.6 0.5 1.3 0.9 1.9 1.3 1.4 0.8 2.7 1.6 4 2.4 2.8 1.3 5.5 2.7 8.4 3.6 2.8 1.2 5.7 1.8 8.5 2.5 1.4 0.3 2.9 0.5 4.3 0.7l2.2 0.4c0.7 0.1 1.4 0.1 2.1 0.1q2.1 0.1 4.2 0.2c1.4 0 2.8-0.1 4.2-0.1 2.8 0 5.5-0.6 8.1-1 1.4-0.1 2.6-0.6 3.9-0.8 1.3-0.4 2.5-0.7 3.8-1.1q1.8-0.6 3.6-1.3 0.9-0.3 1.8-0.6 0.8-0.4 1.6-0.8 1.7-0.8 3.4-1.6c1.1-0.5 2.1-1.2 3.1-1.8 1-0.7 2-1.2 3-1.9q1.4-1 2.8-2c7.3-5.5 12.6-12 16.3-18.2 3.7-6.3 6-12.1 7.1-17.1 0.3-1.3 0.7-2.4 0.9-3.5q0.2-1.7 0.5-3.2c0.1-0.9 0.3-1.8 0.4-2.7q0.1-1.2 0.1-2.2 0.1-2 0.2-3.1 0.1-1 0.1-1 0 0 0 1-0.1 1.1-0.1 3.1-0.1 1-0.1 2.3c-0.1 0.8-0.3 1.7-0.4 2.7q-0.2 1.4-0.5 3.1c-0.1 1.2-0.5 2.3-0.8 3.6-1.1 5-3.3 10.9-7 17.2-3.7 6.3-9 12.8-16.4 18.4q-1.3 1.1-2.8 2.1c-0.9 0.7-2 1.3-3 1.9-1 0.6-2 1.3-3.1 1.8q-1.7 0.8-3.4 1.6-0.8 0.5-1.7 0.9-0.9 0.3-1.8 0.6-1.8 0.7-3.6 1.4c-1.3 0.4-2.6 0.6-3.8 1-1.3 0.3-2.6 0.7-4 0.9-2.6 0.4-5.3 0.9-8.1 1-1.4 0-2.8 0.2-4.3 0.1q-2.1-0.1-4.3-0.2c-0.7 0-1.4 0-2.1-0.1l-2.2-0.3c-1.4-0.3-2.9-0.4-4.3-0.7-2.9-0.8-5.9-1.4-8.7-2.6-2.9-0.9-5.6-2.3-8.4-3.7-1.4-0.7-2.7-1.6-4.1-2.4-0.6-0.4-1.4-0.8-2-1.2l-1.9-1.5c-2.6-1.8-4.9-4-7.4-6.2q-1.6-1.8-3.2-3.6l-0.9-0.9-0.7-1-1.5-2-1.5-2-1.3-2.1-1.3-2.2-0.7-1.1-0.5-1.1q-1.1-2.3-2.2-4.6-0.9-2.4-1.8-4.8c-2.1-6.5-3.2-13.4-3.3-20.4 0.1-7.1 1.2-14 3.3-20.5q0.9-2.4 1.8-4.8 1.1-2.3 2.2-4.5l0.5-1.2 0.7-1 1.3-2.2 1.3-2.1 1.5-2 1.5-2 0.7-1 0.9-0.9q1.6-1.8 3.3-3.6c2.4-2.2 4.7-4.5 7.3-6.3l1.9-1.4c0.7-0.5 1.4-0.8 2-1.3 1.4-0.8 2.7-1.6 4.1-2.4 2.8-1.3 5.5-2.7 8.4-3.7 2.8-1.1 5.8-1.7 8.7-2.5 1.4-0.3 2.9-0.4 4.3-0.7l2.2-0.3c0.7-0.1 1.4-0.1 2.1-0.1q2.2-0.1 4.3-0.3c1.4 0 2.9 0.2 4.3 0.2 2.8 0 5.5 0.6 8.1 1 1.4 0.1 2.7 0.6 4 0.9 1.2 0.3 2.5 0.6 3.8 1q1.8 0.7 3.6 1.4 0.9 0.3 1.8 0.6 0.9 0.4 1.7 0.8 1.7 0.9 3.4 1.7c1.1 0.5 2.1 1.2 3.1 1.8 1 0.6 2.1 1.2 3 1.9q1.5 1 2.8 2.1c7.3 5.5 12.7 12.1 16.4 18.4 3.7 6.3 5.9 12.2 7 17.2 0.3 1.3 0.7 2.4 0.8 3.6q0.3 1.6 0.5 3.1c0.1 1 0.3 1.9 0.4 2.7q0 1.3 0.1 2.3 0 2 0.1 3 0 1.1 0 1.1z"/>
					</g>
				</g>
				<g id="&lt;Group&gt;">
					<path id="&lt;Path&gt;" class="s3" d="m117 233.2h12.2c0 0 0-10.2 10.7-10.4 5.5-0.1 8.4 3.5 9.6 6.3 1.3 3.2 0.9 6.9-0.9 9.9-2.1 3.4-6.6 6.6-14.9 5.1v18h12.1v-6.6c0 0 17-4.4 17-23.1 0-17.9-16-22-22.9-22-5.3 0-23.2 1.3-22.9 22.8z"/>
					<path id="&lt;Path&gt;" class="s3" d="m146 278.2h-12.3v-11.5h12.3z"/>
				</g>
			</g>
			<g id="&lt;Group&gt;">
				<path id="&lt;Path&gt;" class="s0" d="m207.2 304.6c0 5.4-4.4 9.8-9.8 9.8-5.4 0-9.8-4.4-9.8-9.8 0-5.5 4.4-9.9 9.8-9.9 5.4 0 9.8 4.4 9.8 9.9z"/>
				<g id="&lt;Group&gt;">
					<path id="&lt;Path&gt;" class="s2" d="m207.2 304.6c-0.1 0 0-0.9-0.4-2.4-0.4-1.5-1.4-3.6-3.6-5.2-2.2-1.7-5.7-2.6-9-1.3-1.7 0.6-3.3 1.7-4.4 3.3-1.2 1.5-1.8 3.5-1.8 5.6 0 2 0.6 4 1.8 5.5 1.1 1.6 2.7 2.7 4.4 3.3 3.3 1.3 6.8 0.4 9-1.3 2.2-1.6 3.2-3.7 3.6-5.2 0.4-1.5 0.3-2.3 0.4-2.3q0.1 0 0.1 0.6c0 0.4-0.1 1-0.2 1.8-0.4 1.5-1.3 3.8-3.6 5.6-2.2 1.8-5.9 2.9-9.6 1.5-1.8-0.6-3.5-1.8-4.8-3.5-1.2-1.7-1.9-3.8-2-6 0.1-2.3 0.8-4.4 2-6.1 1.3-1.7 3-2.9 4.8-3.5 3.7-1.4 7.4-0.3 9.6 1.5 2.3 1.8 3.2 4.1 3.6 5.6 0.1 0.8 0.2 1.4 0.2 1.8q0 0.7-0.1 0.7z"/>
				</g>
			</g>
		</g>
	</g>
	<g id="Speech Bubble 1">
		<g id="&lt;Group&gt;">
			<g id="&lt;Group&gt;">
				<g id="&lt;Group&gt;">
					<path id="&lt;Path&gt;" class="s0" d="m855.9 272c-37.5 0-67.7-30.3-67.7-67.7 0-37.4 30.2-67.7 67.7-67.7 37.4 0 67.6 30.3 67.6 67.7 0 37.4-30.2 67.7-67.6 67.7z"/>
					<g id="&lt;Group&gt;">
					</g>
				</g>
				<g id="&lt;Group&gt;">
					<path id="&lt;Path&gt;" class="s3" d="m831.8 192.7h12.8c0 0 0-10.8 11.3-11 5.8-0.1 8.8 3.7 10 6.6 1.5 3.4 1 7.3-0.9 10.5-2.2 3.5-6.9 6.8-15.6 5.3v18.9h12.7v-6.9c0 0 17.8-4.6 17.8-24.3 0-18.8-16.8-23.1-24-23.1-5.6 0-24.4 1.3-24.1 24z"/>
					<path id="&lt;Path&gt;" class="s3" d="m862.3 239.9h-12.9v-12h12.9z"/>
				</g>
			</g>
			<g id="&lt;Group&gt;">
				<path id="&lt;Path&gt;" class="s0" d="m792.9 262.6c0 5.7-4.7 10.3-10.4 10.3-5.7 0-10.3-4.6-10.3-10.3 0-5.7 4.6-10.3 10.3-10.3 5.7 0 10.4 4.6 10.4 10.3z"/>
				<g id="&lt;Group&gt;">
					<path id="&lt;Path&gt;" class="s2" d="m792.9 262.6c-0.1 0-0.1-0.9-0.5-2.5-0.4-1.5-1.5-3.7-3.8-5.5-2.2-1.7-5.9-2.6-9.4-1.3-1.8 0.6-3.5 1.8-4.6 3.5-1.3 1.6-1.9 3.7-2 5.8 0.1 2.2 0.7 4.2 2 5.9 1.1 1.6 2.8 2.8 4.6 3.5 3.5 1.3 7.2 0.3 9.4-1.4 2.3-1.7 3.4-4 3.8-5.5 0.4-1.6 0.4-2.5 0.5-2.5q0 0 0 0.7c0 0.4 0 1.1-0.2 1.9-0.3 1.6-1.3 4-3.7 5.9-2.3 1.9-6.3 3-10.1 1.6-1.9-0.7-3.7-1.9-5-3.7-1.3-1.8-2.1-4.1-2.1-6.4 0-2.3 0.8-4.6 2.1-6.3 1.3-1.8 3.1-3.1 5-3.8 3.8-1.3 7.8-0.2 10.1 1.7 2.4 1.8 3.4 4.2 3.7 5.9 0.2 0.8 0.2 1.4 0.2 1.9q0 0.6 0 0.6z"/>
				</g>
			</g>
		</g>
	</g>
	<g id="Character 1">
		<g id="&lt;Group&gt;">
			<g id="&lt;Group&gt;">
				<path id="&lt;Path&gt;" class="s2" d="m416.6 759.7c-21.6-54-37.7-91.6-37.7-91.6l-197.4 30c0 0-35.5 90.9-32.4 132.2 3 41.3 17.5 114 17.5 114h238.8c0 0 32.8-130.5 11.2-184.6z"/>
				<g id="&lt;Group&gt;">
					<g id="&lt;Group&gt;">
						<path id="&lt;Path&gt;" class="s2" d="m345.4 308.7c1.5-15.6 3.9-31.3 9.6-45.9 5.7-14.6 15.1-28.2 28.3-36.6l3.4 3.1c2.3-6.7 8.5-11.8 15.6-12.9 7-1.1 14.5 2 18.7 7.7 7.6-2.1 16.3 1 20.9 7.4 4.5 6.4 4.7 15.6 0.4 22.1 7.1 0.9 13.3 6.5 15 13.4 1.7 7-1.2 14.8-7.1 18.9 7.8 6.8 10.9 18.5 7.5 28.2-3.4 9.8-13.2 16.9-23.5 17.3 2.3 9-2.4 19.3-10.6 23.4-8.3 4.2-19.4 1.8-25.2-5.4 0.7 9.3-6.7 18.2-15.8 20.4-9.1 2.2-19-1.5-25.7-8.1-6.6-6.6-10.3-15.7-11.7-25-1.4-9.2-0.7-18.7 0.2-28z"/>
						<g id="&lt;Group&gt;">
							<g id="&lt;Group&gt;">
								<g id="&lt;Group&gt;">
									<path id="&lt;Path&gt;" class="s4" d="m387.4 239.6c9.1 2.9 10.9 10.3 12.8 16.4 4.1 13.2-0.5 32.7-7.9 44.3-7.3 11.7-15.4 17.6-29.1 19.6q-0.7-31.4-1.3-62.8z"/>
								</g>
								<g id="&lt;Group&gt;">
									<g id="&lt;Group&gt;">
										<g id="&lt;Group&gt;">
											<g id="&lt;Group&gt;">
												<path id="&lt;Path&gt;" class="s2" d="m392.5 275.6c6.2-8 5.3-20.7-1.9-27.8 4-5 2.5-12.7-1.5-17.6-4-5-10-7.8-15.8-10.5-3.2-14.6-19.6-24.9-34.1-21.4-7.6-11.1-23.7-12.8-36.7-9.1-3.1 0.9-6.3 2.1-9.6 2.1-2.4 0-4.7-0.7-7.1-1-13.2-1.7-26.2 7.5-31.4 19.8-0.8 1.9-1.4 4-2.7 5.6-1.8 2.2-4.3 3.5-6.5 5.2-4.8 3.7-7.8 9.6-8.1 15.6-0.2 5.1 1.4 10.5-0.7 15.1-1.1 2.3-3.1 4.2-3.9 6.6-2.4 7.1 5.4 14.2 3.9 21.5-0.3 1.5-1 2.9-1.4 4.3-0.8 3-0.5 6.3 0.8 9.1 1.1 2.2 2.7 4.1 2.9 6.5 0.1 1.8-0.7 3.5-1.1 5.3-0.9 4.4 8.5 21.1 12.3 23.5l112.2 1c8.5-1.7 15.4-9.4 16.3-18.1 0.1-1.4 0.1-2.9 1-4.1 0.8-1 2-1.4 3.1-2 7.2-3.9 8.1-13.8 7.3-22-0.1-1.1-0.2-2.3 0.1-3.4 0.4-1.6 1.6-2.9 2.6-4.2z"/>
											</g>
										</g>
										<g id="&lt;Group&gt;">
											<g id="&lt;Group&gt;">
												<path id="&lt;Path&gt;" class="s5" d="m360.4 275.8c0.3-19.9-12.2-42.7-31.9-52.4-12.4-6.2-22.1-6.2-28.7-7-14.6-1.7-26.5 5.6-26.5 5.6-6.2 1.4-28.8 22.2-30 44.7-1.3 25.1-1.9 55.7 1.2 74.3 6.4 37.5 35.2 41.9 35.2 41.9 0 0-2.7 62.3-2.7 62.3l55.4 45.4 16.9-74.5z"/>
											</g>
										</g>
										<g id="&lt;Group&gt;">
											<g id="&lt;Group&gt;">
												<g id="&lt;Group&gt;">
													<g id="&lt;Group&gt;">
														<g id="&lt;Group&gt;">
															<g id="&lt;Group&gt;">
																<path id="&lt;Path&gt;" class="s6" d="m279.7 382.9c0 0 25.4 1.4 50.3-13.9 0 0-13.1 26.6-50.7 23.5z"/>
															</g>
														</g>
													</g>
												</g>
											</g>
										</g>
										<g id="&lt;Group&gt;">
											<g id="&lt;Group&gt;">
												<g id="&lt;Group&gt;">
													<g id="&lt;Group&gt;">
														<g id="&lt;Group&gt;">
															<g id="&lt;Group&gt;">
																<path id="&lt;Path&gt;" class="s5" d="m354.7 311.4c0-2.8 3.1-9.4 5.9-9.9 7.4-1.2 20.6-0.8 21 18 0.4 25.6-24.7 19.8-25.4 20-4.1 0.8-1.4-18.4-1.5-28.1z"/>
															</g>
														</g>
													</g>
												</g>
											</g>
										</g>
										<g id="&lt;Group&gt;">
											<g id="&lt;Group&gt;">
												<g id="&lt;Group&gt;">
													<g id="&lt;Group&gt;">
														<g id="&lt;Group&gt;">
															<g id="&lt;Group&gt;">
																<g id="&lt;Group&gt;">
																	<path id="&lt;Path&gt;" class="s6" d="m363.1 330c0.1-0.1 0.4 0.3 1.2 0.7 0.7 0.3 2 0.5 3.3 0 2.7-1.1 4.9-5.4 4.9-10 0.1-2.3-0.5-4.6-1.3-6.4-0.8-1.8-2.1-3.1-3.4-3.3-1.4-0.3-2.3 0.5-2.6 1.2-0.4 0.7-0.2 1.3-0.3 1.3-0.1 0.1-0.6-0.4-0.4-1.5 0.1-0.5 0.4-1.1 1-1.6 0.6-0.5 1.5-0.8 2.4-0.7 2 0.1 3.8 1.9 4.8 3.9 1 2 1.7 4.5 1.6 7.1 0 5.2-2.6 10-6.3 11.2-1.8 0.5-3.3-0.1-4.1-0.6-0.8-0.7-0.9-1.2-0.8-1.3z"/>
																</g>
															</g>
														</g>
													</g>
												</g>
											</g>
										</g>
										<path id="&lt;Path&gt;" class="s2" d="m237.8 262.9c0.8-9.3 4.5-18.1 9-26.2 3.1-5.7 6.7-11.2 11.6-15.5 4-3.5 8.9-6 13.8-8.3 12.8-6.1 27.1-11.2 40.9-8.1 7.5 1.7 14.2 5.6 20.7 9.6 4.9 3 10 6.1 14.1 10.2 3.7 3.6 6.6 7.8 9.2 12.2 6.2 10.5 10.6 22.3 11.4 34.5 0.9 12.2 10.1 22.9 3 32.8-0.6 0.8-13.3 3.4-14.2 3.8-2.1 0.8-4.3-1.4-4.3-3.7 0-2.2 1.5-4.1 3.2-5.6-3.2-0.1-5.4-3.6-5.2-6.8 0.2-3.2 2.1-5.9 4-8.5 0.2-0.3 0.5-0.7 0.5-1.1 0.2-1.1-1-1.7-2-2.3-4.5-2.7-5-10.2-0.9-13.5-6.1-1.4-10.1-8.7-7.9-14.6 0.4-0.9 0.8-2 0.4-2.9-0.4-0.8-1.5-1.1-2.4-1.3-6.8-2-11.3-9.7-9.8-16.6-3.6 0.2-7.2 0.4-10.6-0.4-3.5-0.9-6.8-2.9-8.4-6.1-2.3 4.1-6.7 6.9-11.4 7.1-4.7 0.3-9.4-2-12.1-5.8-5.9 0.5-12-0.4-17.5-2.7-1.4 5.5-5.8 10.2-11.2 12-1.1 0.3-2.3 0.7-2.8 1.6-0.3 0.7-0.3 1.4-0.2 2.1 0.2 3.6-2.3 5.1-4.2 8.1-2 3-5.4 7.4-8.9 6.5 0.4 6-2.8 10.5-8 13.7z"/>
										<g id="&lt;Group&gt;">
											<g id="&lt;Group&gt;">
												<path id="&lt;Path&gt;" class="s7" d="m232.5 258.2c0 0 0.3-1 1.4-2.7 0.5-0.9 1.3-1.9 2-3.1 0.7-1.3 1.2-2.9 1.4-4.8 0.1-1.9 0-4-0.2-6.4-0.2-2.3-0.4-4.9 0.1-7.6 0.5-2.7 1.6-5.5 3.3-8.1q1.3-1.9 3.1-3.6c1.2-1.1 2.6-2.1 4-3 1.4-1 2.9-2 3.9-3.4 1.1-1.4 1.7-3.1 2.4-4.9 1.4-3.5 3.4-6.9 6.1-9.9 2.7-3 6-5.8 9.9-7.7 1.9-1.1 4-1.8 6.1-2.4 2.2-0.5 4.4-0.9 6.7-0.8 1.2 0 2.3 0.1 3.5 0.2 1.1 0.2 2.2 0.4 3.4 0.6 2.2 0.4 4.5 0.5 6.8 0 2.3-0.5 4.5-1.4 6.9-2 2.3-0.6 4.8-1 7.2-1.3 2.5-0.3 5-0.3 7.5-0.1q3.8 0.2 7.6 1.3c4.9 1.4 9.6 4.1 12.9 8.4q0.5 0.6 1 1.2l-0.4-0.1c7.7-1.9 15.8 0.1 22 4.2 6.3 4.1 11 10.4 12.5 17.4l-0.2-0.2c3.1 1.4 6.2 2.9 9 4.6 2.9 1.8 5.5 3.9 7.4 6.5 2 2.6 3.1 5.7 3.4 8.8 0.3 3.1-0.5 6.3-2.4 8.7v-0.4c3.7 3.6 5.6 8.5 6 13.1 0.5 4.6-0.5 9.1-2.5 12.7-0.5 0.9-1.1 1.7-1.7 2.5-0.6 0.8-1.3 1.6-1.8 2.3-0.5 0.8-0.8 1.7-0.8 2.6-0.1 0.8 0 1.7 0.1 2.6 0.3 3.5 0.2 6.8-0.2 9.7-0.5 2.9-1.3 5.5-2.5 7.4-1.2 2-2.6 3.4-3.9 4.2-1.4 0.9-2.5 1.3-3.2 1.7-0.6 0.5-0.9 0.8-0.9 0.8 0 0 0.2-0.4 0.9-0.8 0.6-0.6 1.8-0.9 3.1-1.8 1.2-0.9 2.6-2.2 3.8-4.2 1.1-1.9 1.9-4.5 2.3-7.3 0.4-2.9 0.4-6.1 0.1-9.6-0.1-0.9-0.2-1.8-0.1-2.8 0.1-0.9 0.4-1.9 0.9-2.7 0.6-0.8 1.2-1.6 1.8-2.4 0.5-0.8 1.2-1.6 1.6-2.5 2-3.5 2.9-7.9 2.4-12.4-0.4-4.5-2.3-9.2-5.8-12.7l-0.2-0.2 0.1-0.2c1.8-2.2 2.5-5.2 2.3-8.2-0.3-3-1.5-6-3.3-8.5-1.9-2.5-4.5-4.5-7.2-6.3-2.8-1.7-5.9-3.1-9-4.6h-0.1l-0.1-0.2c-1.5-6.8-6-13-12.2-16.9-6.1-4-14-6-21.5-4.2l-0.2 0.1-0.2-0.2q-0.4-0.6-0.9-1.3c-3.1-4-7.8-6.7-12.6-8.1q-3.6-1-7.3-1.3c-2.5-0.1-5-0.1-7.4 0.1-2.4 0.3-4.8 0.7-7.1 1.4-2.3 0.5-4.6 1.4-6.9 1.9-1.2 0.2-2.4 0.4-3.6 0.4-1.2 0-2.4-0.2-3.5-0.4-1.2-0.2-2.3-0.4-3.4-0.6-1.2-0.1-2.3-0.2-3.4-0.2-2.2-0.1-4.4 0.3-6.5 0.8-2.1 0.6-4.2 1.3-6 2.3-3.8 1.9-7.1 4.5-9.7 7.5-2.7 3-4.7 6.3-6.1 9.8-0.7 1.7-1.3 3.4-2.4 4.9-1.2 1.5-2.6 2.5-4 3.5-1.5 1-2.8 1.9-4 3q-1.8 1.6-3.1 3.5c-1.7 2.5-2.8 5.3-3.3 7.9-0.5 2.7-0.3 5.2-0.1 7.5 0.1 2.3 0.3 4.5 0.1 6.4-0.2 1.9-0.8 3.6-1.5 4.9-0.8 1.3-1.6 2.2-2.1 3.1-0.6 0.8-0.9 1.5-1.2 1.9-0.2 0.5-0.3 0.8-0.3 0.7z"/>
											</g>
										</g>
										<g id="&lt;Group&gt;">
											<g id="&lt;Group&gt;">
												<path id="&lt;Path&gt;" class="s7" d="m327.1 192.8c0 0.1-0.7-0.4-1.9-1-1.3-0.6-3.2-1.3-5.6-1.6-2.5-0.2-5.5 0-8.4 1.3-3 1.4-5.8 3.8-7.6 7-0.5 1-1 2-1.3 2.9-0.2 1-0.3 2 0.2 2.7l0.7 0.9-1.1-0.3c-2.8-0.8-5.7-0.2-7.9 1-2.2 1.2-3.5 3.1-4.3 4.8-0.7 1.7-0.9 3.2-0.9 4.2-0.1 1 0 1.6 0 1.6q-0.1 0-0.2-0.4-0.1-0.4-0.1-1.2c0-1 0.1-2.6 0.8-4.4 0.7-1.8 2.1-3.8 4.4-5.1 2.3-1.4 5.4-2 8.4-1.2l-0.4 0.6c-0.7-1-0.6-2.3-0.3-3.4 0.3-1 0.8-2.1 1.3-3 1.9-3.5 4.9-6 8-7.3 3.1-1.4 6.2-1.5 8.7-1.2 2.6 0.3 4.5 1.2 5.7 1.9q0.9 0.5 1.4 0.8 0.4 0.4 0.4 0.4z"/>
											</g>
										</g>
										<g id="&lt;Group&gt;">
											<g id="&lt;Group&gt;">
												<path id="&lt;Path&gt;" class="s7" d="m368.8 221.9c0.1 0-0.2 0.3-0.8 0.9-0.7 0.5-1.6 1.3-2.9 2-1.3 0.7-3 1.4-5.1 1.6-2 0.1-4.4-0.3-6.4-1.9l0.6-0.1q-0.4 0.5-0.8 1.1-0.4 0.5-0.8 1c-1.9 2-4.2 3.3-6.4 4-2.2 0.8-4.3 1-6.1 0.8-1.7-0.1-3.1-0.5-4-0.9-0.9-0.3-1.4-0.6-1.4-0.7 0.1-0.1 2 1 5.5 1.1 1.6 0 3.7-0.2 5.8-1 2.1-0.7 4.2-2 6-3.8q0.4-0.5 0.8-1 0.4-0.5 0.7-1l0.3-0.3 0.3 0.2c1.7 1.4 3.9 1.9 5.9 1.8 1.9-0.1 3.5-0.7 4.8-1.3 2.6-1.4 4-2.7 4-2.5z"/>
											</g>
										</g>
										<g id="&lt;Group&gt;">
											<g id="&lt;Group&gt;">
												<path id="&lt;Path&gt;" class="s7" d="m382.6 245.5q0 0-0.1 0.5c-0.1 0.2-0.2 0.7-0.6 1.2-0.6 1-2 2.2-4.1 2.8-2.1 0.5-4.7 0.1-7.3-0.8-1.3-0.4-2.6-0.9-4-1.5-1.4-0.7-2.9-1.6-3.6-3.2q-0.1-0.2-0.1-0.4l0.6 0.1c-2.5 2-5 3.7-7.6 4.7-2.6 1-5.1 1.2-7.2 0.8-2-0.4-3.5-1.3-4.4-2q-0.7-0.6-1-1-0.2-0.3-0.2-0.3c0-0.1 0.5 0.4 1.4 1 0.9 0.7 2.3 1.4 4.3 1.7 2 0.3 4.4 0.1 6.8-0.9 2.5-1 5-2.6 7.4-4.6l0.4-0.3 0.2 0.5q0 0.2 0.1 0.4c0.6 1.3 1.9 2.2 3.2 2.8 1.3 0.6 2.7 1.1 4 1.6 2.5 0.9 5 1.3 6.9 0.8 2-0.4 3.3-1.5 4-2.4 0.7-0.9 0.8-1.5 0.9-1.5z"/>
											</g>
										</g>
									</g>
								</g>
							</g>
							<g id="&lt;Group&gt;">
								<g id="&lt;Group&gt;">
									<g id="&lt;Group&gt;">
										<g id="&lt;Group&gt;">
											<g id="&lt;Group&gt;">
												<g id="&lt;Group&gt;">
													<g id="&lt;Group&gt;">
														<g id="&lt;Group&gt;">
															<g id="&lt;Group&gt;">
																<path id="&lt;Path&gt;" class="s2" d="m299.9 297.4c-0.1 2.5 1.8 4.7 4.4 5 2.6 0.2 4.9-1.7 5.1-4.1 0.1-2.5-1.8-4.7-4.4-5-2.6-0.2-4.9 1.6-5.1 4.1z"/>
															</g>
														</g>
													</g>
												</g>
											</g>
										</g>
									</g>
								</g>
							</g>
							<g id="&lt;Group&gt;">
								<g id="&lt;Group&gt;">
									<g id="&lt;Group&gt;">
										<g id="&lt;Group&gt;">
											<g id="&lt;Group&gt;">
												<g id="&lt;Group&gt;">
													<g id="&lt;Group&gt;">
														<g id="&lt;Group&gt;">
															<g id="&lt;Group&gt;">
																<path id="&lt;Path&gt;" class="s2" d="m254.1 296.2c-0.2 2.5 1.8 4.7 4.4 4.9 2.6 0.2 4.8-1.6 5-4.1 0.2-2.5-1.8-4.7-4.4-4.9-2.6-0.3-4.9 1.6-5 4.1z"/>
															</g>
														</g>
													</g>
												</g>
											</g>
										</g>
									</g>
								</g>
							</g>
							<g id="&lt;Group&gt;">
								<g id="&lt;Group&gt;">
									<g id="&lt;Group&gt;">
										<g id="&lt;Group&gt;">
											<g id="&lt;Group&gt;">
												<g id="&lt;Group&gt;">
													<g id="&lt;Group&gt;">
														<g id="&lt;Group&gt;">
															<g id="&lt;Group&gt;">
																<g id="&lt;Group&gt;">
																	<path id="&lt;Path&gt;" class="s2" d="m252.2 280.5c0.6 0.6 4.2-1.9 9.3-1.7 5.1 0.1 8.8 2.8 9.4 2.2 0.2-0.3-0.3-1.4-1.9-2.6-1.6-1.3-4.3-2.5-7.5-2.6-3.1-0.1-5.8 1-7.4 2.1-1.6 1.2-2.2 2.3-1.9 2.6z"/>
																</g>
															</g>
														</g>
													</g>
												</g>
											</g>
										</g>
									</g>
								</g>
							</g>
							<g id="&lt;Group&gt;">
								<g id="&lt;Group&gt;">
									<g id="&lt;Group&gt;">
										<g id="&lt;Group&gt;">
											<g id="&lt;Group&gt;">
												<g id="&lt;Group&gt;">
													<g id="&lt;Group&gt;">
														<g id="&lt;Group&gt;">
															<g id="&lt;Group&gt;">
																<g id="&lt;Group&gt;">
																	<path id="&lt;Path&gt;" class="s2" d="m302.8 283c0.7 0.6 4.1-2.3 9.1-2.6 5.1-0.5 9 1.9 9.5 1.2 0.3-0.3-0.4-1.3-2.1-2.4-1.7-1.1-4.5-2-7.6-1.8-3.2 0.3-5.8 1.6-7.2 2.9-1.5 1.3-2 2.5-1.7 2.7z"/>
																</g>
															</g>
														</g>
													</g>
												</g>
											</g>
										</g>
									</g>
								</g>
							</g>
							<g id="&lt;Group&gt;">
								<g id="&lt;Group&gt;">
									<g id="&lt;Group&gt;">
										<g id="&lt;Group&gt;">
											<g id="&lt;Group&gt;">
												<g id="&lt;Group&gt;">
													<g id="&lt;Group&gt;">
														<g id="&lt;Group&gt;">
															<g id="&lt;Group&gt;">
																<path id="&lt;Path&gt;" class="s2" d="m283.9 321.2c0-0.2-3.2-0.9-8.3-1.7-1.3-0.2-2.5-0.5-2.7-1.4-0.2-0.9 0.3-2.3 1-3.8q2-4.7 4.2-9.8c5.8-13.9 10-25.4 9.5-25.6-0.6-0.2-5.8 10.9-11.6 24.8q-2.1 5.1-4 9.8c-0.5 1.5-1.4 3.1-0.8 5.1 0.3 1 1.3 1.7 2.1 2 0.8 0.3 1.5 0.3 2.2 0.4 5.1 0.4 8.3 0.5 8.4 0.2z"/>
															</g>
														</g>
													</g>
												</g>
											</g>
										</g>
									</g>
								</g>
							</g>
							<path id="&lt;Path&gt;" class="s6" d="m291.7 328.8c2 0.3 3.9 1.3 5 2.9 1.1 1.6 1.9 5.3 0.8 6.8-1 1.2-5.2 1.2-8.1 0.8-1.3-0.1-2.4-1.1-2.9-2.4l-1.1-3.2c-0.7-1.9 0.3-4 2.2-4.6 1.3-0.4 2.7-0.5 4.1-0.3z"/>
							<g id="&lt;Group&gt;">
								<g id="&lt;Group&gt;">
									<g id="&lt;Group&gt;">
										<g id="&lt;Group&gt;">
											<g id="&lt;Group&gt;">
												<path id="&lt;Path&gt;" class="s2" d="m300.5 264.4c0.8 1.3 5.7-0.3 11.7-0.8 6-0.5 11 0.3 11.6-1.1 0.2-0.6-0.9-1.8-3-2.7-2.2-0.9-5.5-1.6-9.1-1.3-3.6 0.3-6.7 1.5-8.6 2.8-2 1.2-2.9 2.5-2.6 3.1z"/>
											</g>
										</g>
									</g>
								</g>
							</g>
							<g id="&lt;Group&gt;">
								<g id="&lt;Group&gt;">
									<g id="&lt;Group&gt;">
										<g id="&lt;Group&gt;">
											<g id="&lt;Group&gt;">
												<path id="&lt;Path&gt;" class="s2" d="m253.5 272.1c1 1.1 5.1-0.2 9.9-0.3 4.9-0.4 9.1 0.5 10-0.7 0.4-0.6-0.3-1.8-2.1-2.8-1.8-1.1-4.8-1.9-8.2-1.7-3.3 0.2-6.2 1.3-7.9 2.5-1.7 1.3-2.2 2.5-1.7 3z"/>
											</g>
										</g>
									</g>
								</g>
							</g>
						</g>
					</g>
					<g id="&lt;Group&gt;">
						<g id="&lt;Group&gt;">
							<path id="&lt;Path&gt;" class="s7" d="m428.9 483.6l-48 174.2 16.8 50c-63.4 27.9-155.1 36.8-227.4 1.8 0 0 24.6-72.1 25.4-86.1 0.8-14-5.2-95.9 1.5-123.4 6.7-27.5 25.8-86.4 25.8-86.4l56.3-8.9c25.8 13.9 42.3 15.9 70-0.1l52.4 11.4z"/>
						</g>
						<g id="&lt;Group&gt;">
							<path id="&lt;Path&gt;" class="s7" d="m223.8 413.6c0 0-30.2 3.2-42.3 28.1-12.1 24.5-45.4 133.2-47.2 151.4-1.9 18.1 12.9 42.6 25.7 45.9l38.9-38.8 32.3 2.9 42.6-198.4z"/>
						</g>
						<g id="&lt;Group&gt;" style="opacity: .3">
							<g id="&lt;Group&gt;">
								<path id="&lt;Path&gt;" class="s8" d="m201 480.4c-9.4 24.4-12 51.3-7.6 77q-10.6-3.9-21.2-7.9c5.8 8 13.4 14.7 22.1 19.4-5.8-1.7-11.7-3.4-17.6-3-6 0.4-12.1 3.3-14.8 8.6 6.9-1.2 14-2.5 21-1.7 7.1 0.8 14.2 4.1 17.9 10-5.2-22.6-7.2-46-5.9-69.2"/>
							</g>
						</g>
					</g>
					<g id="&lt;Group&gt;">
						<g id="&lt;Group&gt;" style="opacity: .3">
							<g id="&lt;Group&gt;">
								<path id="&lt;Path&gt;" class="s8" d="m192.2 629.8l158.6 15.7c-11.4-0.2-20.2 9.5-30.1 15.2-18.4 10.6-41.2 7.6-62.1 4.3q-26-4-52-8.1c-4.3-0.7-9-1.5-12.2-4.6-5.8-5.4-4.2-14.8-2.2-22.5z"/>
							</g>
						</g>
						<g id="&lt;Group&gt;">
							<path id="&lt;Path&gt;" class="s5" d="m313.3 616.8l26.6-25.6c2.5-2.5 6.1-3.8 9.6-3.4 7.6 0.7 20.5 2 23.1 3 3.8 1.5 7.4 3.6 8.4 5.5 1.1 1.9 4.7 13.3 4.9 15 0.1 0.8-0.1 3.2-0.4 5.4-0.4 2.6-3.2 4.2-5.5 2.9-1.1-0.6-2-1.4-2.5-2.4-1.7-3.1-1.5-4.4-1.5-4.4 0 0 0.8 11.4-8.5 11.6 0 0 4.3 9.7-7.6 13.7 0 0 0.4 6.3-9.6 7.2-10 0.8-19 0-19 0 0 0-18.3 13.1-31.2 13.9-12.9 0.9-41.7-4.7-41.7-4.7l-3.5-53.1z"/>
						</g>
						<g id="&lt;Group&gt;">
							<g id="&lt;Group&gt;">
								<path id="&lt;Path&gt;" class="s6" d="m349.3 600.5c0 0.1 1.6 0.8 4.2 1.8 2.7 1 6.4 2.3 10.6 3.5 2.1 0.6 4.2 0.9 6 1.4 1.8 0.4 2.8 1.8 3.6 2.9 0.8 1.2 1.4 2.2 1.9 2.8 0.5 0.6 0.9 0.9 0.9 0.9 0.1-0.1-0.2-0.4-0.7-1-0.4-0.7-1-1.7-1.7-2.9-0.4-0.6-0.8-1.3-1.4-1.9-0.6-0.7-1.5-1.2-2.4-1.5-1.9-0.5-3.9-0.8-6-1.4-4.2-1.1-7.9-2.4-10.6-3.3-2.7-0.8-4.4-1.4-4.4-1.3z"/>
							</g>
						</g>
						<g id="&lt;Group&gt;">
							<g id="&lt;Group&gt;">
								<path id="&lt;Path&gt;" class="s6" d="m345.9 616.8c-0.1 0.1 1.1 0.6 2.9 1.4 1.9 0.7 4.5 1.7 7.4 2.7 2.9 0.9 5.6 1.7 7.5 2.2 1.9 0.6 3.2 0.8 3.2 0.7 0-0.1-1.2-0.5-3.1-1.1-2.1-0.8-4.6-1.6-7.4-2.5-2.7-0.9-5.2-1.8-7.4-2.5-1.9-0.6-3.1-1-3.1-0.9z"/>
							</g>
						</g>
						<g id="&lt;Group&gt;">
							<g id="&lt;Group&gt;">
								<path id="&lt;Path&gt;" class="s6" d="m339.3 631.9c0 0.3 4.6 0.7 10.2 2.2 5.5 1.5 9.8 3.4 9.8 3.2 0.1 0-0.9-0.6-2.7-1.4-1.7-0.8-4.2-1.7-7-2.5-2.7-0.7-5.3-1.1-7.2-1.3-1.9-0.3-3.1-0.3-3.1-0.2z"/>
							</g>
						</g>
						<g id="&lt;Group&gt;">
							<path id="&lt;Path&gt;" class="s7" d="m277.8 657.8l-117.8-18.8c0 0 14.2-59.1 34.8-59.1 3 0 107.7 34 107.7 34z"/>
						</g>
						<g id="&lt;Group&gt;">
							<g id="&lt;Group&gt;">
								<path id="&lt;Path&gt;" class="s6" d="m298.4 632.1c0.1 0.1 1.1-0.9 2.8-2.5 1.8-1.8 4-4 6.4-6.3 2.5-2.5 4.8-4.8 6.3-6.5 1.6-1.7 2.5-2.8 2.4-2.9-0.1-0.1-1.1 0.9-2.7 2.5-1.9 1.8-4.1 4-6.5 6.4-2.5 2.4-4.7 4.7-6.3 6.4-1.5 1.7-2.4 2.8-2.4 2.9z"/>
							</g>
						</g>
					</g>
					<g id="&lt;Group&gt;">
						<path id="&lt;Path&gt;" class="s2" d="m302.5 613.9q-0.1 0.1-1.5-0.2-1.7-0.5-4.2-1.2c-3.9-1.1-9.1-2.6-15.4-4.4-12.9-3.8-30.7-9.1-50.4-15.2-10.9-3.3-21.2-6.5-30.4-9.3l-0.2-0.1-0.2-0.2c-3.6-4.9-8.9-7.9-13.7-9.3-4.9-1.5-9.5-1.7-13.2-1.4-3.7 0.3-6.5 1.2-8.5 1.7-1.9 0.7-2.9 1.1-2.9 1 0-0.1 0.9-0.7 2.8-1.4 1.9-0.8 4.7-1.7 8.5-2.2 3.8-0.4 8.5-0.4 13.6 1.1 5.1 1.4 10.6 4.3 14.7 9.6l-0.4-0.3c9.1 2.8 19.5 5.9 30.4 9.2 19.7 6 37.4 11.6 50.3 15.7 6.2 2 11.3 3.7 15.2 4.9q2.4 0.9 4.1 1.4 1.4 0.6 1.4 0.6z"/>
					</g>
				</g>
				<g id="&lt;Group&gt;">
					<g id="&lt;Group&gt;">
						<g id="&lt;Group&gt;">
							<g id="&lt;Group&gt;">
								<path id="&lt;Path&gt;" class="s5" d="m271.3 425.1c1-3.3 6.5-33.6 8.7-40.6 3.2-9.9 29-27.7 29-27.7 0 0-4-9.3-15-4.5-13 5.8-19.5 15.4-22.7 13.5-3.3-2-23.7-22.8-29.3-22.2-5.6 0.7-6.8 6.4-4.8 8.7 1.9 2.3 4.1 6.1 4.1 6.1 0 0-11.8-3.6-9.5 9.4 0 0-13.4-8.4-12.1 9.3 0 0-8.8-3.6-10.8 2.6-2 6.2 3.9 13.4 6.8 18.3 3 5 12.5 33.5 12.5 33.5l0.1 25.1 47-9.7z"/>
								<g id="&lt;Group&gt;">
									<path id="&lt;Path&gt;" class="s6" d="m271.3 425.1q0 0 0.3 1.4 0.4 1.6 0.9 4.2c0.8 3.8 1.8 9.3 3.2 16.2l0.1 0.3-0.4 0.1c-11.6 2.5-27.6 5.9-46.9 9.9l-0.8 0.2v-0.8c-0.1-7.7-0.1-16.2-0.2-25.1v0.2c-3.3-9.7-6.8-20.1-11.2-30.6-2.1-5-6.6-9.5-8.2-15.6-0.4-1.5-0.6-3.2-0.3-4.8 0.3-1.6 1-3.4 2.6-4.4 1.5-1 3.3-1.2 4.9-1.1 1.6 0.1 3.2 0.5 4.7 1.1l-1.1 0.8c-0.1-1.7-0.2-3.5 0.1-5.3 0.3-1.7 0.7-3.7 2.2-5.2 1.5-1.6 3.8-1.9 5.7-1.6 2 0.4 3.7 1.1 5.4 2l-1.3 0.9c-0.3-2.4-0.7-5.3 0.9-7.9 1-1.6 2.8-2.5 4.6-2.8 1.7-0.2 3.4-0.1 5.1 0.4l-1 1.2c-1.2-2-2.4-3.9-3.8-5.7-0.9-0.9-1.4-2.4-1.3-3.7 0-1.3 0.5-2.6 1.2-3.7 0.8-1.1 1.9-1.9 3.1-2.4q0.9-0.3 1.8-0.4c0.6-0.1 1.5 0 2 0.1 2.5 0.8 4.3 2.2 6.2 3.5 7.3 5.3 13.6 11.5 19.9 17 0.8 0.6 1.7 1.5 2.3 1.7 0.5 0.1 1.5-0.3 2.3-0.8 1.7-1 3.2-2.4 4.9-3.6 3.2-2.6 6.5-4.9 10-6.9 3.4-1.8 7-3.8 11.2-3.7 4.1 0.1 7.6 2.9 9.3 6.3l0.2 0.5-0.5 0.4c-10 7.1-19.1 14.2-25.5 21.7-1.6 1.9-2.8 3.9-3.5 6.1-0.7 2.2-1.2 4.4-1.7 6.5q-1.4 6.3-2.5 11.5c-1.5 6.9-2.7 12.4-3.5 16.2q-0.6 2.8-1 4.3c-0.2 0.9-0.4 1.4-0.4 1.4-0.1 0 0-0.5 0.2-1.5q0.3-1.6 0.8-4.3c0.8-3.8 1.8-9.3 3.1-16.2q1.1-5.3 2.4-11.6c0.5-2.2 0.9-4.3 1.6-6.6 0.7-2.3 2-4.5 3.6-6.5 6.5-7.8 15.5-14.9 25.6-22.2l-0.2 0.9c-1.5-3-4.6-5.4-8.1-5.4-3.5-0.2-7 1.7-10.4 3.5-3.4 1.9-6.6 4.3-9.8 6.8-1.6 1.3-3.2 2.6-5 3.8-1 0.5-2 1.2-3.5 0.9-1.5-0.5-2-1.3-2.9-2-6.4-5.6-12.7-11.7-19.9-16.9-1.8-1.2-3.7-2.5-5.6-3.2-0.5-0.1-0.8-0.1-1.3-0.1q-0.8 0.1-1.5 0.4c-0.9 0.4-1.7 1-2.3 1.8-1.1 1.6-1.4 4 0 5.4 1.5 1.8 2.7 3.8 4 5.9l1 1.7-2-0.5c-2.7-0.7-6.3-0.7-7.8 1.7-1.2 1.9-0.9 4.5-0.6 6.7l0.2 1.8-1.5-0.9c-1.4-0.9-3.1-1.5-4.7-1.8-1.6-0.3-3.3 0-4.3 1.1-2.1 2.3-2 6-1.9 9.2l0.1 1.3-1.2-0.5c-2.6-0.9-6-1.5-8.1-0.1-1.1 0.7-1.6 1.9-1.9 3.3-0.2 1.3 0 2.7 0.3 4.1 0.7 2.8 2.2 5.3 3.7 7.8 1.5 2.4 3.3 4.8 4.4 7.6 4.4 10.6 7.8 21 11.1 30.7l0.1 0.1v0.2c0 8.9 0 17.3 0 25.1l-0.8-0.6c19.3-3.9 35.4-7.1 47-9.4l-0.3 0.4c-1.2-7-2.1-12.4-2.8-16.3q-0.4-2.6-0.7-4.2-0.2-1.4-0.1-1.4z"/>
								</g>
							</g>
						</g>
						<g id="&lt;Group&gt;">
							<g id="&lt;Group&gt;">
								<path id="&lt;Path&gt;" class="s6" d="m241.4 358.7c-0.1 0.2 2.5 2.4 5.7 5.3 3.2 2.9 5.7 5.3 5.8 5.2 0.2-0.1-2.1-2.8-5.3-5.7-3.2-2.9-6.1-4.9-6.2-4.8z"/>
							</g>
						</g>
						<g id="&lt;Group&gt;">
							<g id="&lt;Group&gt;">
								<path id="&lt;Path&gt;" class="s6" d="m230.9 367c-0.2 0.1 0.8 2.7 2.9 5.3 2 2.6 4.2 4.3 4.3 4.1 0.2-0.2-1.8-2-3.8-4.5-2-2.6-3.2-4.9-3.4-4.9z"/>
							</g>
						</g>
						<g id="&lt;Group&gt;">
							<g id="&lt;Group&gt;">
								<path id="&lt;Path&gt;" class="s6" d="m219.9 376.4c-0.2 0.1 0.9 1.9 2.5 4 1.5 2.2 2.8 3.8 3 3.7 0.2-0.2-0.9-2-2.5-4.1-1.5-2.1-2.8-3.7-3-3.6z"/>
							</g>
						</g>
					</g>
				</g>
				<path id="&lt;Path&gt;" class="s7" d="m401.7 416.1l-50.5 50.4-51.8 65.1-20.6-86.8-52.7 10.9c0 0 3.7 98 19.9 142.4 3.1 8.5 12.2 14.8 16.3 16.7 25.5 12.1 50.3-6.6 50.3-6.6 0 0 106.3-71.3 117.8-119.1 5.4-22.5 3.2-49.3-6-60.3-8.2-9.7-22.7-12.7-22.7-12.7z"/>
				<g id="&lt;Group&gt;">
					<path id="&lt;Path&gt;" class="s2" d="m430.4 489.1q0 0.1-0.4 1.6c-0.4 1-0.6 2.6-1.4 4.5-1.4 3.9-4.1 9.3-8.4 15.9-4.3 6.6-10.2 14.1-17.7 22.3-7.5 8.2-16.5 17.1-27 26.4-10.4 9.3-22.3 19-35.4 29q-9.8 7.5-20.5 15.1-2.7 1.9-5.4 3.8c-1.8 1.2-3.7 2.5-5.7 3.6-3.9 2.3-8.1 4.2-12.6 5.5-8.8 2.9-18.8 3.5-28.2 0.6-1.2-0.3-2.3-0.9-3.5-1.3-1.1-0.5-2.3-0.9-3.3-1.5-2.2-1.2-4.2-2.7-6.2-4.2-3.8-3.3-7.2-7.2-9.1-12-3.4-9.5-5.8-19.5-7.9-29.7-1.9-10.2-3.7-20.6-5.1-31.2-3.7-28.3-5.8-55.8-7-81.8v-0.4l0.4-0.1c18.4-3.8 36-7.4 52.7-10.8l0.4-0.1 0.1 0.4c7.8 33 14.8 62.3 20.5 86.8l-0.6-0.1c17.8-19.2 32.1-34.5 42-45.1 4.9-5.3 8.7-9.4 11.3-12.1q1.9-2.1 2.9-3.2 1.1-1 1.1-1 0 0-1 1.1-1 1.1-2.9 3.2c-2.5 2.8-6.3 6.9-11.2 12.2-9.8 10.7-24 26.1-41.6 45.4l-0.5 0.4-0.2-0.6c-5.8-24.5-12.8-53.8-20.7-86.8l0.6 0.4c-16.7 3.4-34.3 7.1-52.7 10.9l0.4-0.6c1.2 26.1 3.4 53.6 7.1 81.7 1.3 10.6 3.1 21 5 31.2 2.1 10.1 4.5 20.1 7.9 29.5 1.7 4.6 5.1 8.4 8.8 11.6 1.8 1.5 3.8 2.9 5.9 4.1 1.1 0.6 2.2 1 3.3 1.5 1.1 0.4 2.2 1 3.4 1.2 9.1 2.9 18.9 2.3 27.6-0.5 4.4-1.3 8.6-3.2 12.5-5.4 1.9-1.1 3.7-2.3 5.6-3.6q2.7-1.9 5.4-3.8 10.7-7.5 20.5-15c13.1-9.9 25-19.6 35.4-28.8 10.5-9.3 19.6-18.1 27.1-26.2 7.5-8.2 13.5-15.7 17.8-22.2 4.3-6.5 7.1-12 8.5-15.8 0.8-1.9 1.1-3.5 1.5-4.4q0.5-1.6 0.5-1.6z"/>
				</g>
				<g id="&lt;Group&gt;">
					<path id="&lt;Path&gt;" class="s2" d="m309 571.5c-0.2-0.1 0.4-2.6 0.7-6.7 0.2-2.1 0.2-4.5 0.1-7.2-0.3-2.7-0.7-5.7-1.5-8.7-1.6-6.1-4.2-11.3-6.3-14.8-2.1-3.5-3.7-5.5-3.6-5.7 0.1 0 0.5 0.5 1.3 1.4 0.8 0.8 1.8 2.2 2.9 3.9 2.3 3.5 5.1 8.7 6.7 14.9 0.8 3.1 1.2 6.1 1.4 8.9 0.1 2.8 0.1 5.3-0.2 7.4-0.3 2-0.6 3.7-0.9 4.8-0.4 1.2-0.6 1.8-0.6 1.8z"/>
				</g>
				<g id="&lt;Group&gt;">
					<path id="&lt;Path&gt;" class="s2" d="m301.8 335.4c-0.1 0.3-1.2 0.2-2.9-0.2-1.6-0.3-3.8-0.8-6.3-1-2.5-0.2-4.7 0-6.2 0.4-1.6 0.3-2.3 1-2.5 0.9-0.1-0.1-0.1-0.4 0.2-0.9 0.3-0.5 0.9-1 1.7-1.4 1.7-0.9 4.2-1.3 6.9-1.1 2.8 0.2 5.1 1 6.7 1.7 1.6 0.7 2.5 1.3 2.4 1.6z"/>
				</g>
			</g>
			<g id="&lt;Group&gt;" style="opacity: .3">
				<path id="&lt;Path&gt;" class="s8" d="m382 656.7c0 0-23.1-2.8-35.5-4.7-6.8-1.1-17.2-2.2-19.1-4.1-2.5-2.3-2.5-6.3-2.7-9.6-4.4-57.7 15.4-120.2 76.7-157.4l15.7 4.1-1.1 37.6z"/>
			</g>
		</g>
	</g>
	<g id="Character 2">
		<g id="&lt;Group&gt;">
			<g id="&lt;Group&gt;">
				<g id="&lt;Group&gt;">
					<g id="&lt;Group&gt;">
						<g id="&lt;Group&gt;">
							<g id="&lt;Group&gt;">
								<g id="&lt;Group&gt;">
									<g id="&lt;Group&gt;">
										<g id="&lt;Group&gt;">
											<g id="&lt;Group&gt;">
												<g id="&lt;Group&gt;">
													<g id="&lt;Group&gt;">
														<g id="&lt;Group&gt;">
															<path id="&lt;Path&gt;" class="s2" d="m743.5 207.1c7.8 0.7 15.7-5.3 17.2-13 1.5-7.7-3.6-16.2-11.2-18.4 4.8-5.1 5.8-13.3 2.4-19.5-3.3-6.1-10.8-9.6-17.6-8.4-0.5-6.8-4.8-13.3-10.9-16.5-6.1-3.1-13.9-2.8-19.7 0.9-7.8-6.3-20-6.3-27.7 0.1-6.7-1.1-13.9 2.7-16.9 8.8-3 6.1-1.6 14 3.4 18.7"/>
														</g>
													</g>
												</g>
											</g>
										</g>
									</g>
								</g>
							</g>
							<g id="&lt;Group&gt;">
								<g id="&lt;Group&gt;">
									<g id="&lt;Group&gt;">
										<g id="&lt;Group&gt;">
											<g id="&lt;Group&gt;">
												<g id="&lt;Group&gt;">
													<g id="&lt;Group&gt;">
														<path id="&lt;Path&gt;" class="s5" d="m672.9 148.2h3.5c35.6-0.9 65.8 25.7 69.5 61.1 3.4 32.9 6.7 69.2 6.9 86.9 0.4 36.6-36 43.2-36 43.2l4.1 43.9-88.9-0.7-11.6-159.3c-4.1-37.9 14.5-71.9 52.5-75.1z"/>
													</g>
												</g>
											</g>
										</g>
									</g>
									<g id="&lt;Group&gt;">
										<g id="&lt;Group&gt;">
											<g id="&lt;Group&gt;">
												<g id="&lt;Group&gt;">
													<g id="&lt;Group&gt;">
														<g id="&lt;Group&gt;">
															<g id="&lt;Group&gt;">
																<g id="&lt;Group&gt;">
																	<g id="&lt;Group&gt;">
																		<g id="&lt;Group&gt;">
																			<g id="&lt;Group&gt;">
																				<path id="&lt;Path&gt;" class="s6" d="m716.8 339.4c0 0-25.5 1.9-50.4-13 0 0 14.8 26.7 51.3 22.5z"/>
																			</g>
																		</g>
																	</g>
																</g>
															</g>
														</g>
													</g>
												</g>
											</g>
										</g>
									</g>
									<g id="&lt;Group&gt;">
										<g id="&lt;Group&gt;">
											<g id="&lt;Group&gt;">
												<g id="&lt;Group&gt;">
													<g id="&lt;Group&gt;">
														<g id="&lt;Group&gt;">
															<g id="&lt;Group&gt;">
																<g id="&lt;Group&gt;">
																	<g id="&lt;Group&gt;">
																		<g id="&lt;Group&gt;">
																			<g id="&lt;Group&gt;">
																				<g id="&lt;Group&gt;">
																					<g id="&lt;Group&gt;">
																						<g id="&lt;Group&gt;">
																							<path id="&lt;Path&gt;" class="s2" d="m734.7 249c0.1 2.8-2.1 5.2-4.9 5.4-2.9 0.2-5.4-1.8-5.5-4.6-0.2-2.8 2-5.2 4.9-5.4 2.9-0.2 5.3 1.8 5.5 4.6z"/>
																						</g>
																					</g>
																				</g>
																			</g>
																		</g>
																	</g>
																</g>
															</g>
														</g>
													</g>
												</g>
											</g>
										</g>
									</g>
									<g id="&lt;Group&gt;">
										<g id="&lt;Group&gt;">
											<g id="&lt;Group&gt;">
												<g id="&lt;Group&gt;">
													<g id="&lt;Group&gt;">
														<g id="&lt;Group&gt;">
															<g id="&lt;Group&gt;">
																<g id="&lt;Group&gt;">
																	<g id="&lt;Group&gt;">
																		<g id="&lt;Group&gt;">
																			<g id="&lt;Group&gt;">
																				<g id="&lt;Group&gt;">
																					<g id="&lt;Group&gt;">
																						<g id="&lt;Group&gt;">
																							<g id="&lt;Group&gt;">
																								<path id="&lt;Path&gt;" class="s2" d="m738.4 227.4c-0.6 0.7-4.6-2.2-10.3-2-5.6 0-9.6 3-10.3 2.4-0.3-0.3 0.4-1.6 2.1-2.9 1.8-1.4 4.7-2.7 8.2-2.8 3.6 0 6.5 1.2 8.3 2.5 1.7 1.2 2.3 2.5 2 2.8z"/>
																							</g>
																						</g>
																					</g>
																				</g>
																			</g>
																		</g>
																	</g>
																</g>
															</g>
														</g>
													</g>
												</g>
											</g>
										</g>
									</g>
									<g id="&lt;Group&gt;">
										<g id="&lt;Group&gt;">
											<g id="&lt;Group&gt;">
												<g id="&lt;Group&gt;">
													<g id="&lt;Group&gt;">
														<g id="&lt;Group&gt;">
															<g id="&lt;Group&gt;">
																<g id="&lt;Group&gt;">
																	<g id="&lt;Group&gt;">
																		<g id="&lt;Group&gt;">
																			<g id="&lt;Group&gt;">
																				<g id="&lt;Group&gt;">
																					<g id="&lt;Group&gt;">
																						<g id="&lt;Group&gt;">
																							<path id="&lt;Path&gt;" class="s2" d="m686.3 249c0.1 2.8-2.1 5.2-5 5.4-2.8 0.2-5.3-1.8-5.5-4.6-0.1-2.8 2.1-5.2 5-5.4 2.8-0.2 5.3 1.8 5.5 4.6z"/>
																						</g>
																					</g>
																				</g>
																			</g>
																		</g>
																	</g>
																</g>
															</g>
														</g>
													</g>
												</g>
											</g>
										</g>
									</g>
									<g id="&lt;Group&gt;">
										<g id="&lt;Group&gt;">
											<g id="&lt;Group&gt;">
												<g id="&lt;Group&gt;">
													<g id="&lt;Group&gt;">
														<g id="&lt;Group&gt;">
															<g id="&lt;Group&gt;">
																<g id="&lt;Group&gt;">
																	<g id="&lt;Group&gt;">
																		<g id="&lt;Group&gt;">
																			<g id="&lt;Group&gt;">
																				<g id="&lt;Group&gt;">
																					<g id="&lt;Group&gt;">
																						<g id="&lt;Group&gt;">
																							<g id="&lt;Group&gt;">
																								<path id="&lt;Path&gt;" class="s2" d="m683.2 229.7c-0.7 0.7-4.7-2.1-10.3-2-5.6 0.1-9.7 3.1-10.3 2.4-0.3-0.3 0.3-1.6 2.1-2.9 1.7-1.3 4.7-2.7 8.2-2.7 3.5-0.1 6.5 1.1 8.2 2.4 1.8 1.3 2.4 2.5 2.1 2.8z"/>
																							</g>
																						</g>
																					</g>
																				</g>
																			</g>
																		</g>
																	</g>
																</g>
															</g>
														</g>
													</g>
												</g>
											</g>
										</g>
									</g>
									<g id="&lt;Group&gt;">
										<g id="&lt;Group&gt;">
											<g id="&lt;Group&gt;">
												<g id="&lt;Group&gt;">
													<g id="&lt;Group&gt;">
														<g id="&lt;Group&gt;">
															<g id="&lt;Group&gt;">
																<g id="&lt;Group&gt;">
																	<g id="&lt;Group&gt;">
																		<g id="&lt;Group&gt;">
																			<g id="&lt;Group&gt;">
																				<g id="&lt;Group&gt;">
																					<g id="&lt;Group&gt;">
																						<g id="&lt;Group&gt;">
																							<path id="&lt;Path&gt;" class="s2" d="m704.5 270.9c0-0.3 3.5-1 9.1-1.8 1.5-0.2 2.8-0.5 3-1.5 0.4-1.1-0.3-2.6-1-4.2q-2.2-5.2-4.5-10.9c-6.3-15.4-10.8-28.1-10.2-28.4 0.6-0.2 6.2 12.1 12.4 27.5q2.3 5.7 4.4 10.9c0.5 1.7 1.5 3.5 0.8 5.7-0.3 1-1.4 1.8-2.3 2.1-0.9 0.3-1.7 0.3-2.4 0.4-5.7 0.4-9.2 0.6-9.3 0.2z"/>
																						</g>
																					</g>
																				</g>
																			</g>
																		</g>
																	</g>
																</g>
															</g>
														</g>
													</g>
												</g>
											</g>
										</g>
									</g>
									<g id="&lt;Group&gt;">
										<g id="&lt;Group&gt;">
											<g id="&lt;Group&gt;">
												<g id="&lt;Group&gt;">
													<g id="&lt;Group&gt;">
														<g id="&lt;Group&gt;">
															<g id="&lt;Group&gt;">
																<g id="&lt;Group&gt;">
																	<g id="&lt;Group&gt;">
																		<g id="&lt;Group&gt;">
																			<path id="&lt;Path&gt;" class="s2" d="m684.4 218.1c-0.8 1.4-5.6 0-11.6-0.1-5.9-0.1-10.9 1.1-11.4-0.4-0.3-0.7 0.7-2 2.8-3.2 2.1-1.2 5.3-2.1 8.9-2 3.6 0 6.7 1.1 8.7 2.4 2 1.3 2.9 2.6 2.6 3.3z"/>
																		</g>
																	</g>
																</g>
															</g>
														</g>
													</g>
												</g>
											</g>
										</g>
									</g>
									<g id="&lt;Group&gt;">
										<g id="&lt;Group&gt;">
											<g id="&lt;Group&gt;">
												<g id="&lt;Group&gt;">
													<g id="&lt;Group&gt;">
														<g id="&lt;Group&gt;">
															<g id="&lt;Group&gt;">
																<g id="&lt;Group&gt;">
																	<g id="&lt;Group&gt;">
																		<g id="&lt;Group&gt;">
																			<path id="&lt;Path&gt;" class="s2" d="m738.1 204.2c-1.1 1.3-5.8 0.1-11.4 0.1-5.5-0.1-10.3 1.1-11.4-0.2-0.5-0.6 0.3-1.9 2.3-3.2 2-1.2 5.4-2.3 9.2-2.3 3.9 0 7.2 1.1 9.2 2.4 2 1.2 2.7 2.5 2.1 3.2z"/>
																		</g>
																	</g>
																</g>
															</g>
														</g>
													</g>
												</g>
											</g>
										</g>
									</g>
									<g id="&lt;Group&gt;">
										<g id="&lt;Group&gt;">
											<g id="&lt;Group&gt;">
												<g id="&lt;Group&gt;">
													<g id="&lt;Group&gt;">
														<g id="&lt;Group&gt;">
															<g id="&lt;Group&gt;">
																<g id="&lt;Group&gt;">
																	<g id="&lt;Group&gt;">
																		<path id="&lt;Path&gt;" class="s2" d="m742 192.6c0 0-10.2-22.7-21.4-27.8-13.5-6.2-19 8.7-31.8 5.4-12.8-3.3-25.7-9.2-38.5 1-14 11.1-7.2 18.5-7.7 34.8-2 65.9-13.6 84.8-17.8 53.8-0.4-3.4-9.9-5.8-11.6-20.2-2.3-18.5-3.5-41.1 0.3-54.4 3.3-11.2 9.4-19.1 20.6-27.8 17.7-13.8 42.3-14.7 59.1-13.4 16.8 1.3 49.6 19.9 48.8 48.6z"/>
																	</g>
																</g>
															</g>
														</g>
													</g>
												</g>
											</g>
										</g>
									</g>
									<g id="&lt;Group&gt;">
										<g id="&lt;Group&gt;">
											<g id="&lt;Group&gt;">
												<g id="&lt;Group&gt;">
													<g id="&lt;Group&gt;">
														<g id="&lt;Group&gt;">
															<g id="&lt;Group&gt;">
																<g id="&lt;Group&gt;">
																	<g id="&lt;Group&gt;">
																		<path id="&lt;Path&gt;" class="s5" d="m627.2 258.8c-0.4-5.7-5.4-10-11-9.3-6.8 0.8-14.3 4.8-13.5 18.9 1.4 25 26.2 18.5 26.2 17.8 0-0.5-1.1-17-1.7-27.4z"/>
																	</g>
																</g>
															</g>
														</g>
													</g>
												</g>
											</g>
										</g>
									</g>
									<g id="&lt;Group&gt;">
										<g id="&lt;Group&gt;">
											<g id="&lt;Group&gt;">
												<g id="&lt;Group&gt;">
													<g id="&lt;Group&gt;">
														<g id="&lt;Group&gt;">
															<g id="&lt;Group&gt;">
																<g id="&lt;Group&gt;">
																	<g id="&lt;Group&gt;">
																		<path id="&lt;Path&gt;" class="s6" d="m622.9 277c-0.1 0-0.4 0.4-1.1 0.8-0.7 0.3-1.9 0.6-3.3 0.2-2.7-0.8-5.1-4.9-5.5-9.4-0.2-2.3 0.2-4.5 0.9-6.3 0.6-1.9 1.8-3.2 3.1-3.5 1.3-0.4 2.3 0.3 2.6 1 0.4 0.7 0.2 1.2 0.4 1.3 0.1 0 0.5-0.5 0.2-1.5-0.1-0.5-0.4-1.1-1-1.5-0.7-0.5-1.6-0.7-2.5-0.5-1.9 0.2-3.5 2.1-4.3 4.1-0.9 2-1.3 4.5-1.1 7.1 0.4 5 3.2 9.6 6.9 10.4 1.8 0.4 3.2-0.3 4-0.9 0.7-0.6 0.8-1.2 0.7-1.3z"/>
																	</g>
																</g>
															</g>
														</g>
													</g>
												</g>
											</g>
										</g>
									</g>
								</g>
								<g id="&lt;Group&gt;">
									<g id="&lt;Group&gt;">
										<g id="&lt;Group&gt;">
											<g id="&lt;Group&gt;">
												<g id="&lt;Group&gt;">
													<g id="&lt;Group&gt;">
														<g id="&lt;Group&gt;">
															<g id="&lt;Group&gt;">
																<path id="&lt;Path&gt;" class="s2" d="m626.5 210.3c3.3 2.1 6.8 4.4 10.7 4.6 3.9 0.3 8.4-2 8.9-5.9 0.3-1.8-0.2-3.8 0.9-5.1 1.4-1.7 3.9-1.2 6-1.1 7.3 0.6 15.6-7.6 17.3-14.7 1.9 2.7 6 3.5 8.8 1.6 2.7-1.9 3.7-2.9 5.9-5.5 2.1-2.6 5.1-4.9 8.5-4.5 1.8 0.2 3.6 1.3 5.4 1.1 3.3-0.4 4.8-4.3 5.2-7.5 0.5-3.3 0.8-7.1 3.5-9 2.5-1.7 5.9-0.8 8.9-0.4 3.1 0.3 7-0.5 7.7-3.4 0.3-1.6-0.4-3.2-1.3-4.5-4-6.1-12.6-8.6-19.2-5.7-2.7-8.2-10.6-14.5-19.1-15.2-8.6-0.7-17.4 4.2-21.4 11.9-5.4-4.7-13.1-6.6-20-4.8-7 1.7-12.9 7-15.4 13.7-6.1-1.4-13 1.1-16.8 6.1-3.7 5.1-4.1 12.4-0.9 17.8-4.4 2.7-8.2 7.3-8.1 12.4 0 5.2 5.1 10.3 10.1 8.8-1.9 4.1-0.1 9.5 3.8 11.7 4 2.1 9.5 0.7 11.9-3.1"/>
															</g>
														</g>
													</g>
												</g>
											</g>
										</g>
									</g>
								</g>
								<g id="&lt;Group&gt;">
									<g id="&lt;Group&gt;">
										<g id="&lt;Group&gt;">
											<g id="&lt;Group&gt;">
												<g id="&lt;Group&gt;">
													<g id="&lt;Group&gt;">
														<g id="&lt;Group&gt;">
															<g id="&lt;Group&gt;">
																<g id="&lt;Group&gt;">
																	<path id="&lt;Path&gt;" class="s7" d="m705.7 157.6q0 0 0 0.4c0 0.3 0 0.8-0.1 1.4-0.2 1.1-0.7 2.9-1.7 4.9-1.1 1.9-2.8 4.2-5.4 6-2.6 1.8-6.2 3.3-10.2 3.2l0.4-0.6c0.8 2.1 0.7 4.7-0.3 6.9-1 2.3-2.5 4.3-4.2 6.3-0.8 0.9-1.5 2-2.7 2.9-1.2 0.8-2.5 1.4-3.9 1.6-2.9 0.4-6.1-0.4-8.2-2.7l1-0.3c-0.6 5-3.3 10-7.7 13.1-2.3 1.8-5.3 2.9-8.1 2.9-2.9 0.1-5.7-0.7-8.2-1.6l0.7-0.3c-1.3 3.2-3.3 5.9-5.8 7.9-2.4 2-5.6 3.2-8.6 2.6-6-1.1-10-6-10.9-10.6l0.6 0.3c-2.9 1.6-6.1 1.9-8.6 1.4-2.6-0.4-4.6-1.4-6-2.5-1.5-1.1-2.4-2.2-2.9-3-0.5-0.8-0.7-1.2-0.7-1.3 0.1-0.1 0.9 1.9 3.8 4 1.4 0.9 3.4 1.9 5.9 2.2 2.4 0.4 5.4 0.1 8.1-1.5l0.5-0.3 0.1 0.6c0.9 4.3 4.7 8.8 10.2 9.7 2.7 0.6 5.6-0.5 7.9-2.4 2.3-1.9 4.2-4.5 5.4-7.5l0.2-0.4 0.5 0.1c2.4 0.9 5.1 1.6 7.7 1.5 2.7 0 5.3-1 7.6-2.6 4.1-3 6.7-7.7 7.2-12.4l0.1-1.2 0.8 0.9c1.8 2 4.7 2.7 7.2 2.3 1.3-0.1 2.5-0.6 3.5-1.3 1-0.7 1.7-1.8 2.6-2.8 1.6-1.9 3.1-3.8 4-5.9 1-2.1 1.1-4.4 0.4-6.3l-0.2-0.6h0.6c3.8 0.2 7.3-1.1 9.8-2.9 2.5-1.7 4.2-3.8 5.4-5.7 2.2-3.8 2-6.5 2.2-6.4z"/>
																</g>
															</g>
														</g>
													</g>
												</g>
											</g>
										</g>
									</g>
								</g>
							</g>
						</g>
					</g>
				</g>
				<path id="&lt;Path&gt;" class="s5" d="m525.7 379.3c0 0-94 33.2-121.2 46.8-21.3 10.7-34.7 49.5-2 65.7 24.4 12 156.4-11 156.4-11z"/>
				<g id="&lt;Group&gt;">
					<g id="&lt;Group&gt;">
						<g id="&lt;Group&gt;">
							<g id="&lt;Group&gt;">
								<path id="&lt;Path&gt;" class="s2" d="m812.8 708.6l-238.9-9-8.7 81.3-9.5 163.2 121.9 0.5c0.1-0.7 15.3-91.7 15.3-91.7l6.8-1.8-0.6 93.5h114.3c6-77.4 9.5-142.4 9.7-148.5 1.6-48.4-10.3-87.5-10.3-87.5z"/>
								<g id="&lt;Group&gt;">
									<g id="&lt;Group&gt;">
										<g id="&lt;Group&gt;">
											<g id="&lt;Group&gt;">
												<g id="&lt;Group&gt;">
													<g id="&lt;Group&gt;">
														<g id="&lt;Group&gt;">
															<g id="&lt;Group&gt;">
																<g id="&lt;Group&gt;">
																	<g id="&lt;Group&gt;">
																		<path id="&lt;Path&gt;" class="s7" d="m684.3 802.2c-0.1 0.1 1.2 0.7 3.6 1.8 2.4 1 5.9 2.6 10.7 3.2 2.3 0.4 5 0.4 7.8-0.2 2.8-0.6 5.7-2 8-4.3 2.3-2.4 3.7-5.6 4.6-8.9 0.9-3.3 1.3-6.8 1.8-10.3 2.2-14.1 3.5-27 4.1-36.3 0.4-4.6 0.6-8.4 0.6-11 0.1-2.6 0.1-4.1 0-4.1-0.1 0-0.4 1.4-0.7 4q-0.4 4.5-1.1 11c-1 9.3-2.5 22.1-4.6 36.1-1.1 7-1.8 14-5.9 18.3-4.1 4.3-10.1 4.9-14.5 4.5-4.5-0.5-8.1-1.8-10.6-2.6-2.4-0.9-3.8-1.4-3.8-1.2z"/>
																	</g>
																</g>
															</g>
														</g>
													</g>
												</g>
											</g>
										</g>
									</g>
								</g>
								<g id="&lt;Group&gt;">
									<g id="&lt;Group&gt;">
										<g id="&lt;Group&gt;">
											<g id="&lt;Group&gt;">
												<g id="&lt;Group&gt;">
													<g id="&lt;Group&gt;">
														<g id="&lt;Group&gt;">
															<g id="&lt;Group&gt;">
																<g id="&lt;Group&gt;">
																	<g id="&lt;Group&gt;">
																		<path id="&lt;Path&gt;" class="s7" d="m707 735.3c0.1-0.1-0.5-0.4-1.7-0.4-1.2-0.1-3 0.4-4.7 1.7-1.7 1.3-3.4 3.7-3.3 6.7 0 3.1 2.5 6.1 5.7 7.1 3.2 1.1 7 0.2 8.8-2.3 1.9-2.4 1.9-5.3 1.4-7.4-0.6-2.1-1.8-3.5-2.8-4.1-1-0.7-1.7-0.8-1.7-0.7-0.2 0.2 2.5 1.3 3.2 5.1 0.4 1.8 0.2 4.2-1.3 6.1-1.5 1.8-4.4 2.4-7 1.6-2.6-0.9-4.6-3.1-4.7-5.5-0.1-2.3 1.2-4.4 2.5-5.6 2.9-2.7 5.7-1.9 5.6-2.3z"/>
																	</g>
																</g>
															</g>
														</g>
													</g>
												</g>
											</g>
										</g>
									</g>
								</g>
								<g id="&lt;Group&gt;">
									<g id="&lt;Group&gt;">
										<g id="&lt;Group&gt;">
											<g id="&lt;Group&gt;">
												<g id="&lt;Group&gt;">
													<g id="&lt;Group&gt;">
														<g id="&lt;Group&gt;">
															<g id="&lt;Group&gt;">
																<g id="&lt;Group&gt;">
																	<g id="&lt;Group&gt;">
																		<path id="&lt;Path&gt;" class="s7" d="m573.9 776c0 0.1 1 0.2 2.9 0.3 1.9 0.2 4.6 0.1 8-0.2 6.7-0.6 15.9-2.6 25.3-7 9.4-4.5 16.8-10.3 21.5-15.1 2.4-2.4 4.2-4.5 5.3-6 1.1-1.5 1.7-2.4 1.6-2.5-0.3-0.2-2.9 3.1-7.8 7.6-4.8 4.5-12.2 10-21.4 14.3-9.1 4.3-18.1 6.5-24.7 7.4-6.6 0.9-10.7 0.9-10.7 1.2z"/>
																	</g>
																</g>
															</g>
														</g>
													</g>
												</g>
											</g>
										</g>
									</g>
								</g>
							</g>
						</g>
					</g>
				</g>
				<g id="&lt;Group&gt;">
					<g id="&lt;Group&gt;">
						<path id="&lt;Path&gt;" class="s7" d="m817.7 695.3c-4.7-10.6-3.9-11.6-3.9-11.6l-13.2-116.3-12.8-113.1-10.4-83.7-59.7-12.8c0 0-6.9 19.1-35.8 19.7-33.3 0.6-52.4-29.1-52.4-29.1l-95.5 20.5 35.9 246.5 4.3 66.4c0 0-7.1 10.8-7.1 22.3 0 11.5-0.5 19.2-0.5 19.2 88.7 24.4 176.8 45.5 257.8 21.9 0 0-2.1-39.2-6.7-49.9z"/>
						<g id="&lt;Group&gt;">
							<path id="&lt;Path&gt;" class="s7" d="m755.6 366.3c0 0 34.5 3.8 46.7 16.8 12.2 13 51.3 77.2 51.3 77.2l-56.7 77.6-26.3-35.9z"/>
						</g>
						<g id="&lt;Group&gt;">
							<g id="&lt;Group&gt;">
								<g id="&lt;Group&gt;">
									<path id="&lt;Path&gt;" class="s2" d="m781.9 406.4c0.5 0 5.9 42.7 12.1 95.3 6.2 52.7 10.9 95.5 10.4 95.5-0.5 0.1-5.9-42.6-12.1-95.3-6.2-52.7-10.9-95.4-10.4-95.5z"/>
								</g>
							</g>
						</g>
					</g>
				</g>
				<path id="&lt;Path&gt;" class="s7" d="m534 368.9l-76.6 34 27.7 77.4 73.8 11.7z"/>
				<g id="&lt;Group&gt;">
					<path id="&lt;Path&gt;" class="s2" d="m544.5 420.2c0.5 0 4.1 30.2 8.1 67.5 4 37.4 6.9 67.7 6.3 67.7-0.5 0.1-4.1-30.1-8.1-67.5-4-37.3-6.8-67.6-6.3-67.7z"/>
				</g>
				<g id="&lt;Group&gt;" style="opacity: .3">
					<path id="&lt;Path&gt;" class="s8" d="m563.4 813c41.5-14.9 64.5-44.3 83.1-75.6 18.6-31.2 21.2-75.1 9.4-109.5 0 0-85.9 83.1-86.5 84.9-0.6 1.9-6 100.2-6 100.2z"/>
				</g>
				<g id="&lt;Group&gt;" style="opacity: .3">
					<path id="&lt;Path&gt;" class="s8" d="m680.2 376.4c-1 8.4 3.7 16.6 9.5 22.8 5.8 6.2 12.8 11.3 18 18 6.1 7.6 9.5 16.8 12.8 25.9q10.5 28.6 21 57.1c6 16.3 12.1 32.9 21.7 47.5 9.5 14.6 23 27.3 39.6 32.6l-12.6-107.1-66.5-106.9z"/>
				</g>
				<g id="&lt;Group&gt;">
					<g id="&lt;Group&gt;">
						<path id="&lt;Path&gt;" class="s5" d="m749.1 377.3c0-1.3 1.1-50.9-2.2-56.3-3.3-5.4-6-10.4-6.7-15.5 0 0 1.9-2.9-1.5-4.8-3.3-1.8-8.5 2.7-8.6 10.6-0.1 8 0.8 21.6 0.8 21.6 0 0-36.6-20.8-46.6-21.3-10.1-0.6-25.1-2.5-25.9 2.4-0.8 4.8-0.1 6 5.1 7.8 5.3 1.9 13.6 3.1 21.8 5.9 8.2 2.8 12 4.7 12 4.7 0 0-18.7-5.5-22.8 0-4.1 5.5-3.6 10.4-1 13.1 0 0-5.5 2.3-5 8.4 0.6 6.1 3.3 7.6 3.3 7.6 0 0-5.4 4.2-2.8 9.5 2.6 5.3 8.8 1.9 14.6 7.9 5.8 6 20.3 20.1 25.8 23.2 5.6 3.1 18.4 4.4 18.4 4.4z"/>
						<g id="&lt;Group&gt;">
							<path id="&lt;Path&gt;" class="s6" d="m749.1 377.3q0.1 0-0.3 0.5-0.4 0.6-1 1.5-1.4 2-4.1 5.7c-3.7 5.1-9 12.4-15.7 21.7l-0.1 0.1h-0.1q-3.8-0.4-7.9-1.2c-2.7-0.5-5.6-1.1-8.4-2.2-1.5-0.5-2.9-1.3-4.1-2.2-1.3-0.9-2.5-1.9-3.8-2.9-2.5-2.1-5-4.3-7.5-6.7q-3.8-3.5-7.7-7.3-1.9-1.9-3.9-3.9c-1.3-1.3-2.6-2.6-4.2-3.5-1.6-0.9-3.5-1.4-5.4-1.8-1.8-0.4-4-0.9-5.4-2.6-1.4-1.6-2-3.9-1.5-6.1 0.6-2.1 1.9-3.8 3.6-5.2v0.7c-1.4-1-2.1-2.5-2.7-4q-0.8-2.3-0.8-4.7c-0.1-1.7 0.4-3.4 1.4-4.8 0.9-1.5 2.3-2.6 3.9-3.3l-0.2 0.7c-2.3-2.3-2.7-6.1-1.6-9.1 0.5-1.5 1.3-2.9 2.2-4.2 0.4-0.7 1.1-1.4 1.9-1.8 0.7-0.4 1.5-0.6 2.3-0.8 3.2-0.7 6.5-0.4 9.7 0q4.9 0.7 9.7 2l-0.4 0.9c-4.8-2.2-10-4.1-15.3-5.7-5.3-1.6-10.8-2.6-16.4-4.2-1.9-0.6-3.9-1.2-5.8-2.4-0.9-0.6-1.7-1.6-1.8-2.8-0.2-1.1 0-2.1 0.1-3.1 0.1-0.5 0.1-1.1 0.5-1.7 0.3-0.5 0.8-0.9 1.2-1.2 1-0.5 2-0.8 3-1 2.1-0.4 4.1-0.4 6.1-0.4 4 0 8 0.3 11.9 0.5 1.9 0.2 3.8 0.2 5.8 0.6 1 0.2 1.9 0.5 2.9 0.8l2.7 0.9c7.2 2.8 13.9 6.1 20.5 9.4q9.7 5 18.7 10l-0.7 0.4c-0.4-7.8-0.9-15.3-0.7-22.6 0.3-3.6 1.7-7.4 4.7-9.5 0.8-0.5 1.7-0.8 2.6-0.9 0.9 0 1.9 0.4 2.6 0.9 0.7 0.5 1.3 1.4 1.4 2.3 0.2 0.9 0 1.8-0.5 2.6l0.1-0.2c0.8 5.5 3.6 10.3 6.1 14.6 0.4 0.5 0.7 1.1 0.9 1.8 0.2 0.6 0.3 1.2 0.5 1.8q0.3 1.9 0.5 3.7c0.2 2.4 0.4 4.7 0.5 7 0.4 9 0.4 16.8 0.4 23.1 0 6.4-0.1 11.3-0.2 14.7q0 2.5-0.1 3.8 0 1.3-0.1 1.3 0 0 0-1.3 0-1.3 0-3.8c0-3.4 0-8.3 0-14.7-0.1-6.3-0.1-14.1-0.6-23.1-0.1-2.2-0.3-4.6-0.5-6.9q-0.2-1.8-0.6-3.6c-0.2-1.3-0.5-2.4-1.2-3.4-2.6-4.4-5.5-9.2-6.3-14.9v-0.2-0.1c0.4-0.6 0.6-1.4 0.4-2.1-0.1-0.7-0.6-1.3-1.2-1.8-1.2-1-2.9-0.9-4.3 0.1-2.7 1.8-4 5.4-4.3 8.8-0.1 7.2 0.3 14.8 0.8 22.6l0.1 0.8-0.7-0.4q-9-5.1-18.8-10c-6.4-3.3-13.2-6.6-20.3-9.3l-2.7-0.9c-0.9-0.3-1.8-0.6-2.8-0.8-1.8-0.3-3.8-0.4-5.7-0.5-3.9-0.3-7.8-0.6-11.8-0.6-2 0-4 0.1-5.9 0.4-1.8 0.4-4 1.1-3.9 3.1-0.2 1-0.3 2-0.1 2.9 0.1 0.9 0.6 1.6 1.4 2.1 1.6 1.1 3.6 1.7 5.5 2.3 5.5 1.5 11.1 2.6 16.4 4.2 5.4 1.6 10.5 3.5 15.5 5.7l-0.4 0.9c-3.1-0.9-6.3-1.5-9.5-2-3.1-0.4-6.4-0.7-9.4 0-1.5 0.3-2.9 0.9-3.6 2.2-0.9 1.2-1.7 2.6-2.1 4-1 2.8-0.7 6.1 1.4 8.2l0.4 0.4-0.6 0.3c-1.4 0.6-2.6 1.7-3.5 3-0.9 1.2-1.3 2.7-1.3 4.3 0.1 1.5 0.4 3 0.8 4.4 0.5 1.4 1.3 2.8 2.3 3.5l0.5 0.4-0.4 0.4c-1.5 1.2-2.8 2.9-3.2 4.7-0.5 1.9 0 3.9 1.2 5.3 1.2 1.5 3.1 2 5 2.4 1.9 0.4 3.9 0.9 5.6 1.9 1.7 0.9 3.1 2.4 4.4 3.7q1.9 2 3.8 3.9 3.9 3.8 7.7 7.3c2.5 2.3 5 4.6 7.4 6.6 2.5 2 4.9 4.1 7.7 5.1 2.8 1.1 5.6 1.7 8.3 2.3q4.1 0.7 7.8 1.2l-0.2 0.1c6.8-9.2 12.1-16.5 15.8-21.5q2.8-3.7 4.2-5.6 0.8-1 1.1-1.5 0.4-0.5 0.4-0.5z"/>
						</g>
					</g>
					<path id="&lt;Path&gt;" class="s5" d="m867.7 493.1c-3.6-7-11.9-21.5-15.9-30.4l-26.1 9.5c0 0-74.1-100.1-76.5-100.1-2.3 0-34.5 29.8-34.5 29.8 1.4 1.5 68.1 154.4 93.7 170.9 25.5 16.6 44.6 27.1 58.3 3.4 13.7-23.6 17.1-52.3 1-83.1z"/>
					<g id="&lt;Group&gt;">
						<path id="&lt;Path&gt;" class="s6" d="m859.2 517.1c-0.1 0-0.5-0.6-1.2-1.9-0.8-1.3-1.8-3.1-3.2-5.4-2.7-4.5-6.8-10.5-11.7-16.9-4.8-6.4-9.6-11.9-13-15.9q-2.5-2.8-4.1-4.7c-1-1.1-1.5-1.7-1.5-1.8 0.1 0 0.7 0.5 1.7 1.6 1.1 1 2.6 2.6 4.4 4.5 3.5 3.9 8.4 9.3 13.3 15.7 4.9 6.4 8.9 12.6 11.5 17.2 1.3 2.3 2.3 4.2 2.9 5.5 0.6 1.3 0.9 2.1 0.9 2.1z"/>
					</g>
				</g>
				<g id="&lt;Group&gt;">
					<path id="&lt;Path&gt;" class="s2" d="m708.5 294.2c-0.7 0.5-3.5-2.3-7.8-3.8-4.4-1.7-8.3-1.3-8.5-2.1-0.1-0.3 0.8-1 2.6-1.3 1.7-0.4 4.3-0.3 6.8 0.7 2.6 0.9 4.6 2.5 5.7 3.8 1.1 1.4 1.5 2.5 1.2 2.7z"/>
				</g>
				<g id="&lt;Group&gt;">
					<path id="&lt;Path&gt;" class="s2" d="m775.3 694.7q0.1 0-0.9 0.5c-0.6 0.3-1.5 0.8-2.7 1.3-2.4 1.1-6.1 2.3-10.8 2.9-4.7 0.7-10.4 0.7-16.6-0.1-6.2-0.7-12.9-2.3-19.8-4.4-13.8-4.2-26-8.8-34.7-12.4-4.4-1.8-7.9-3.3-10.3-4.4q-1.6-0.8-2.7-1.3-1-0.4-1-0.5 0.1 0 1 0.4 1.2 0.4 2.9 1.1c2.5 1 6 2.4 10.3 4.1 8.8 3.4 21 7.9 34.7 12.1 6.9 2.1 13.6 3.6 19.7 4.5 6.1 0.8 11.8 0.8 16.4 0.3 4.6-0.6 8.3-1.7 10.8-2.6 2.4-1 3.7-1.6 3.7-1.5z"/>
				</g>
			</g>
			<g id="&lt;Group&gt;">
				<g id="&lt;Group&gt;">
					<path id="&lt;Path&gt;" class="s3" d="m594.4 503.8c-33.4-22.5-73.2-30.5-99.2-30.5-24.4 0-60.3 3.8-92.8 22.1-20.2 11.4-36.3 26.9-47.8 46.2-13.8 22.8-21.2 51.1-22.1 84-0.2 4.9 1.6 9.6 5.1 13.1 3.4 3.6 8.1 5.5 13.1 5.5l63.9 0.1c9 0 16.8-6.7 18.1-15.7 2.8-20 14.7-53.8 62.6-54.6 36.5-0.5 51.5 25.8 56.2 37.2 7.8 18.5 5.8 40.5-5.3 58.7-17 28.1-48.3 32.4-65.5 32.4-19.7 0.1-35.7 16.1-35.7 35.7l-0.1 68.8c0 10 8.2 18.2 18.2 18.2l62.3 0.1c10.1 0 18.3-8.2 18.3-18.3v-14.4c0-0.4 0.2-0.7 0.5-0.8 14.1-4.9 41.5-16.9 66.2-41.3 31.4-31.3 47.4-71.7 47.4-120 0.1-69.2-34.4-107-63.4-126.5z"/>
					<path id="&lt;Path&gt;" class="s3" d="m497.4 842.4h-5.5c-26-0.1-47.3 21.1-47.3 47.2 0 26 21.2 47.3 47.2 47.3h5.5c26.1 0 47.3-21.2 47.3-47.3 0-26-21.2-47.2-47.2-47.2z"/>
				</g>
				<g id="&lt;Group&gt;" style="opacity: .3">
					<path id="&lt;Path&gt;" class="s8" d="m655.4 586.1c-0.8-7-2.6-13.8-5.2-20.2-12.5-31.2-41.8-52.4-75.1-56.2l-160.8-18.3c17.5 17.9 40.3 21.5 64.5 27.7 24.2 6.3 50.3 15.7 74.7 20.9 7.9 1.7 16 3.8 22.1 9 5.9 5.1 9.3 12.5 12.4 19.7q7 15.9 14 31.8c5.3 12.2 12.3 25.9 26.6 26.6 5.8 0.4 11.4-1.8 15.8-5.6 10.4-8.8 12.5-22.6 11-35.4z"/>
				</g>
				<g id="&lt;Group&gt;">
					<path id="&lt;Path&gt;" class="s5" d="m653.1 543.1c-1.2-2.2-25.6-32.1-37.8-43.7-7.8-7.5-19.6-12.6-27-15.4 0 0-122.4-44.1-130.9-48.5l-54.9 56.3c19.1 5.3 149 36.6 181 43.6 5.6 6.5 11.3 11.9 11.3 11.9l9.3 21.9c0 0 1 7.9 0.4 16.5-0.7 8.5 6.2 5.2 6.2 5.2 0 0-0.3 5.3 0.1 12.9q0.1 0.1 0.1 0.3c0.4 5.7 8.6 6.4 10.4 0.9l6.3-19.7c0 0-0.8 17.9-1.2 27.9 0 1.8 0.3 3.3 0.9 4.6 2.4 5.3 10.3 4.3 11.6-1.4l7.4-31.2-2.4-19.1 6.2 17.5c0 0 1.7 9.3 1.4 22.4-0.2 5.2 1.6 7.5 3.8 8.3 3.6 1.3 7.4-1.6 7.8-5.5l2.3-28.9c0 0-11-34.7-12.3-36.8z"/>
					<g id="&lt;Group&gt;">
						<path id="&lt;Path&gt;" class="s6" d="m449.5 433.4c0.1-0.3 3.6 0.3 9 1.8 5.5 1.5 12.9 4.1 20.9 7.3 8.1 3.1 15.2 6.2 20.4 8.4 5.2 2.2 8.4 3.6 8.4 3.9-0.1 0.2-3.5-0.7-8.8-2.7-5.4-1.9-12.6-4.7-20.6-7.9-8-3.2-15.3-5.9-20.7-7.7-5.3-1.9-8.6-2.9-8.6-3.1z"/>
					</g>
				</g>
			</g>
		</g>
	</g>
</svg>