<svg version="1.2" xmlns="http://www.w3.org/2000/svg" viewBox="0 0 34 34" width="34" height="34">
	<title>en-svg</title>
	<style>
		.s0 { fill: #e30613 } 
	</style>
	<g id="Layer 1">
		<path class="s0" d="m32.7 8.8l-14.9-8.5c-0.6-0.4-1.3-0.4-1.9 0l-14.9 8.5c-0.6 0.4-1 1-1 1.7v12.6c0 0.7 0.4 1.3 1 1.7l14.9 8.5c0.3 0.2 0.6 0.3 0.9 0.3q0.6 0 1-0.3l14.9-8.5c0.6-0.4 1-1 1-1.7v-12.6c0-0.7-0.4-1.3-1-1.7zm-2.5 11.2l-5.5-3.2 5.5-3.2zm-13.4-16.3l11.9 6.9-11.9 6.9-11.9-6.9zm-13.4 10l5.5 3.1-5.5 3.2zm13.4 16.3l-11.9-6.9 7.4-4.3 3.5 2c0.3 0.2 0.6 0.3 1 0.3q0.5 0 1-0.3l3.4-2 7.5 4.3z"/>
	</g>
</svg>